<svg width="inherit" height="inherit" viewBox="0 0 586 346" fill="none" xmlns="http://www.w3.org/2000/svg">
<rect x="0.5" y="0.5" width="879" height="463" rx="21.5" fill="#191C1F"/>
<path d="M88.596 97.232C87.764 97.232 87.08 96.964 86.544 96.428C86.008 95.892 85.74 95.212 85.74 94.388V86.564C85.74 86.316 85.668 86.084 85.524 85.868L84.504 84.44C84.408 84.296 84.36 84.136 84.36 83.96C84.36 83.784 84.408 83.624 84.504 83.48L85.524 82.052C85.668 81.82 85.74 81.588 85.74 81.356V73.544C85.74 72.712 86.008 72.028 86.544 71.492C87.08 70.956 87.764 70.688 88.596 70.688H90.024V72.38H88.668C88.332 72.38 88.04 72.5 87.792 72.74C87.552 72.98 87.432 73.276 87.432 73.628V81.356C87.432 81.972 87.252 82.532 86.892 83.036L86.232 83.96L86.892 84.884C87.252 85.388 87.432 85.948 87.432 86.564V94.316C87.432 94.652 87.552 94.94 87.792 95.18C88.04 95.42 88.332 95.54 88.668 95.54H90.024V97.232H88.596ZM87.1197 119.04V114.72H88.8837V119.04H87.1197ZM90.9237 119.04V114.72H92.6877V119.04H90.9237ZM100.341 132.36C99.3651 132.36 98.5451 132.184 97.8811 131.832C97.2251 131.48 96.7331 131.012 96.4051 130.428C96.0771 129.844 95.9131 129.208 95.9131 128.52C95.9131 127.816 96.0531 127.216 96.3331 126.72C96.6211 126.216 97.0091 125.804 97.4971 125.484C97.9931 125.164 98.5651 124.92 99.2131 124.752C99.8691 124.592 100.593 124.452 101.385 124.332C102.185 124.204 102.965 124.096 103.725 124.008C104.493 123.912 105.165 123.82 105.741 123.732L105.117 124.116C105.141 122.836 104.893 121.888 104.373 121.272C103.853 120.656 102.949 120.348 101.661 120.348C100.773 120.348 100.021 120.548 99.4051 120.948C98.7971 121.348 98.3691 121.98 98.1211 122.844L96.4051 122.34C96.7011 121.18 97.2971 120.28 98.1931 119.64C99.0891 119 100.253 118.68 101.685 118.68C102.869 118.68 103.873 118.904 104.697 119.352C105.529 119.792 106.117 120.432 106.461 121.272C106.621 121.648 106.725 122.068 106.773 122.532C106.821 122.996 106.845 123.468 106.845 123.948V132H105.273V128.748L105.729 128.94C105.289 130.052 104.605 130.9 103.677 131.484C102.749 132.068 101.637 132.36 100.341 132.36ZM100.545 130.836C101.369 130.836 102.089 130.688 102.705 130.392C103.321 130.096 103.817 129.692 104.193 129.18C104.569 128.66 104.813 128.076 104.925 127.428C105.021 127.012 105.073 126.556 105.081 126.06C105.089 125.556 105.093 125.18 105.093 124.932L105.765 125.28C105.165 125.36 104.513 125.44 103.809 125.52C103.113 125.6 102.425 125.692 101.745 125.796C101.073 125.9 100.465 126.024 99.9211 126.168C99.5531 126.272 99.1971 126.42 98.8531 126.612C98.5091 126.796 98.2251 127.044 98.0011 127.356C97.7851 127.668 97.6771 128.056 97.6771 128.52C97.6771 128.896 97.7691 129.26 97.9531 129.612C98.1451 129.964 98.4491 130.256 98.8651 130.488C99.2891 130.72 99.8491 130.836 100.545 130.836ZM125.3 132L125.312 123.492C125.312 122.492 125.032 121.708 124.472 121.14C123.92 120.564 123.216 120.276 122.36 120.276C121.872 120.276 121.396 120.388 120.932 120.612C120.468 120.836 120.084 121.196 119.78 121.692C119.484 122.188 119.336 122.836 119.336 123.636L118.292 123.336C118.268 122.408 118.448 121.596 118.832 120.9C119.224 120.204 119.76 119.664 120.44 119.28C121.128 118.888 121.904 118.692 122.768 118.692C124.072 118.692 125.116 119.096 125.9 119.904C126.684 120.704 127.076 121.788 127.076 123.156L127.064 132H125.3ZM109.832 132V119.04H111.416V122.232H111.608V132H109.832ZM117.584 132L117.596 123.612C117.596 122.58 117.32 121.768 116.768 121.176C116.224 120.576 115.504 120.276 114.608 120.276C113.712 120.276 112.988 120.584 112.436 121.2C111.884 121.808 111.608 122.62 111.608 123.636L110.552 123.06C110.552 122.228 110.748 121.484 111.14 120.828C111.532 120.164 112.068 119.644 112.748 119.268C113.428 118.884 114.2 118.692 115.064 118.692C115.888 118.692 116.62 118.868 117.26 119.22C117.908 119.572 118.416 120.084 118.784 120.756C119.152 121.428 119.336 122.244 119.336 123.204L119.324 132H117.584ZM135.405 132.36C134.117 132.36 133.017 132.068 132.105 131.484C131.193 130.9 130.493 130.092 130.005 129.06C129.517 128.028 129.273 126.844 129.273 125.508C129.273 124.148 129.521 122.956 130.017 121.932C130.513 120.908 131.217 120.112 132.129 119.544C133.049 118.968 134.141 118.68 135.405 118.68C136.701 118.68 137.805 118.972 138.717 119.556C139.637 120.132 140.337 120.936 140.817 121.968C141.305 122.992 141.549 124.172 141.549 125.508C141.549 126.868 141.305 128.064 140.817 129.096C140.329 130.12 139.625 130.92 138.705 131.496C137.785 132.072 136.685 132.36 135.405 132.36ZM135.405 130.668C136.845 130.668 137.917 130.192 138.621 129.24C139.325 128.28 139.677 127.036 139.677 125.508C139.677 123.94 139.321 122.692 138.609 121.764C137.905 120.836 136.837 120.372 135.405 120.372C134.437 120.372 133.637 120.592 133.005 121.032C132.381 121.464 131.913 122.068 131.601 122.844C131.297 123.612 131.145 124.5 131.145 125.508C131.145 127.068 131.505 128.32 132.225 129.264C132.945 130.2 134.005 130.668 135.405 130.668ZM149.027 132.324C148.251 132.324 147.571 132.204 146.987 131.964C146.411 131.724 145.919 131.4 145.511 130.992C145.111 130.584 144.787 130.12 144.539 129.6C144.291 129.072 144.111 128.516 143.999 127.932C143.887 127.34 143.831 126.752 143.831 126.168V119.04H145.607V125.652C145.607 126.364 145.675 127.024 145.811 127.632C145.947 128.24 146.163 128.772 146.459 129.228C146.763 129.676 147.151 130.024 147.623 130.272C148.103 130.52 148.683 130.644 149.363 130.644C149.987 130.644 150.535 130.536 151.007 130.32C151.487 130.104 151.887 129.796 152.207 129.396C152.535 128.988 152.783 128.496 152.951 127.92C153.119 127.336 153.203 126.68 153.203 125.952L154.451 126.228C154.451 127.556 154.219 128.672 153.755 129.576C153.291 130.48 152.651 131.164 151.835 131.628C151.019 132.092 150.083 132.324 149.027 132.324ZM153.383 132V128.808H153.203V119.04H154.967V132H153.383ZM167.556 132V125.388C167.556 124.668 167.488 124.008 167.352 123.408C167.216 122.8 166.996 122.272 166.692 121.824C166.396 121.368 166.008 121.016 165.528 120.768C165.056 120.52 164.48 120.396 163.8 120.396C163.176 120.396 162.624 120.504 162.144 120.72C161.672 120.936 161.272 121.248 160.944 121.656C160.624 122.056 160.38 122.544 160.212 123.12C160.044 123.696 159.96 124.352 159.96 125.088L158.712 124.812C158.712 123.484 158.944 122.368 159.408 121.464C159.872 120.56 160.512 119.876 161.328 119.412C162.144 118.948 163.08 118.716 164.136 118.716C164.912 118.716 165.588 118.836 166.164 119.076C166.748 119.316 167.24 119.64 167.64 120.048C168.048 120.456 168.376 120.924 168.624 121.452C168.872 121.972 169.052 122.528 169.164 123.12C169.276 123.704 169.332 124.288 169.332 124.872V132H167.556ZM158.184 132V119.04H159.78V122.232H159.96V132H158.184ZM179.377 132C178.649 132.152 177.929 132.212 177.217 132.18C176.513 132.148 175.881 131.996 175.321 131.724C174.769 131.452 174.349 131.028 174.061 130.452C173.829 129.972 173.701 129.488 173.677 129C173.661 128.504 173.653 127.94 173.653 127.308V115.44H175.405V127.236C175.405 127.78 175.409 128.236 175.417 128.604C175.433 128.964 175.517 129.284 175.669 129.564C175.957 130.1 176.413 130.42 177.037 130.524C177.669 130.628 178.449 130.604 179.377 130.452V132ZM170.881 120.552V119.04H179.377V120.552H170.881ZM181.565 119.04V114.72H183.329V119.04H181.565ZM185.369 119.04V114.72H187.133V119.04H185.369ZM192.038 130.08V128.028H194.09V130.08H192.038ZM192.05 123.012V120.96H194.102V123.012H192.05ZM202.565 119.04V114.72H204.329V119.04H202.565ZM206.369 119.04V114.72H208.133V119.04H206.369ZM225.565 119.04V114.72H227.329V119.04H225.565ZM229.369 119.04V114.72H231.133V119.04H229.369ZM229.799 134.508L229.907 133.632C230.227 133.656 230.459 133.592 230.603 133.44C230.747 133.288 230.835 133.084 230.867 132.828C230.899 132.572 230.907 132.296 230.891 132H229.799V129.468H231.851V132.48C231.851 133.216 231.663 133.768 231.287 134.136C230.919 134.504 230.423 134.628 229.799 134.508ZM87.1197 159.04V154.72H88.8837V159.04H87.1197ZM90.9237 159.04V154.72H92.6877V159.04H90.9237ZM105.993 172V165.388C105.993 164.668 105.925 164.008 105.789 163.408C105.653 162.8 105.433 162.272 105.129 161.824C104.833 161.368 104.445 161.016 103.965 160.768C103.493 160.52 102.917 160.396 102.237 160.396C101.613 160.396 101.061 160.504 100.581 160.72C100.109 160.936 99.7091 161.248 99.3811 161.656C99.0611 162.056 98.8171 162.544 98.6491 163.12C98.4811 163.696 98.3971 164.352 98.3971 165.088L97.1491 164.812C97.1491 163.484 97.3811 162.368 97.8451 161.464C98.3091 160.56 98.9491 159.876 99.7651 159.412C100.581 158.948 101.517 158.716 102.573 158.716C103.349 158.716 104.025 158.836 104.601 159.076C105.185 159.316 105.677 159.64 106.077 160.048C106.485 160.456 106.813 160.924 107.061 161.452C107.309 161.972 107.489 162.528 107.601 163.12C107.713 163.704 107.769 164.288 107.769 164.872V172H105.993ZM96.6211 172V159.04H98.2171V162.232H98.3971V172H96.6211ZM116.172 172.36C114.908 172.36 113.812 172.08 112.884 171.52C111.964 170.96 111.248 170.172 110.736 169.156C110.224 168.14 109.968 166.948 109.968 165.58C109.968 164.164 110.22 162.94 110.724 161.908C111.228 160.876 111.936 160.08 112.848 159.52C113.768 158.96 114.852 158.68 116.1 158.68C117.38 158.68 118.472 158.976 119.376 159.568C120.28 160.152 120.964 160.992 121.428 162.088C121.892 163.184 122.104 164.492 122.064 166.012H120.264V165.388C120.232 163.708 119.868 162.44 119.172 161.584C118.484 160.728 117.476 160.3 116.148 160.3C114.756 160.3 113.688 160.752 112.944 161.656C112.208 162.56 111.84 163.848 111.84 165.52C111.84 167.152 112.208 168.42 112.944 169.324C113.688 170.22 114.74 170.668 116.1 170.668C117.028 170.668 117.836 170.456 118.524 170.032C119.22 169.6 119.768 168.98 120.168 168.172L121.812 168.808C121.3 169.936 120.544 170.812 119.544 171.436C118.552 172.052 117.428 172.36 116.172 172.36ZM111.216 166.012V164.536H121.116V166.012H111.216ZM131.658 172C130.93 172.152 130.21 172.212 129.498 172.18C128.794 172.148 128.162 171.996 127.602 171.724C127.05 171.452 126.63 171.028 126.342 170.452C126.11 169.972 125.982 169.488 125.958 169C125.942 168.504 125.934 167.94 125.934 167.308V155.44H127.686V167.236C127.686 167.78 127.69 168.236 127.698 168.604C127.714 168.964 127.798 169.284 127.95 169.564C128.238 170.1 128.694 170.42 129.318 170.524C129.95 170.628 130.73 170.604 131.658 170.452V172ZM123.162 160.552V159.04H131.658V160.552H123.162ZM136.846 172L132.886 159.028L134.65 159.04L137.722 169.108L140.806 159.04H142.414L145.498 169.108L148.594 159.04H150.346L146.386 172H144.85L141.61 161.68L138.382 172H136.846ZM157.326 172.36C156.038 172.36 154.938 172.068 154.026 171.484C153.114 170.9 152.414 170.092 151.926 169.06C151.438 168.028 151.194 166.844 151.194 165.508C151.194 164.148 151.442 162.956 151.938 161.932C152.434 160.908 153.138 160.112 154.05 159.544C154.97 158.968 156.062 158.68 157.326 158.68C158.622 158.68 159.726 158.972 160.638 159.556C161.558 160.132 162.258 160.936 162.738 161.968C163.226 162.992 163.47 164.172 163.47 165.508C163.47 166.868 163.226 168.064 162.738 169.096C162.25 170.12 161.546 170.92 160.626 171.496C159.706 172.072 158.606 172.36 157.326 172.36ZM157.326 170.668C158.766 170.668 159.838 170.192 160.542 169.24C161.246 168.28 161.598 167.036 161.598 165.508C161.598 163.94 161.242 162.692 160.53 161.764C159.826 160.836 158.758 160.372 157.326 160.372C156.358 160.372 155.558 160.592 154.926 161.032C154.302 161.464 153.834 162.068 153.522 162.844C153.218 163.612 153.066 164.5 153.066 165.508C153.066 167.068 153.426 168.32 154.146 169.264C154.866 170.2 155.926 170.668 157.326 170.668ZM165.993 172V159.04H167.577V162.16L167.265 161.752C167.409 161.368 167.597 161.016 167.829 160.696C168.061 160.368 168.313 160.1 168.585 159.892C168.921 159.596 169.313 159.372 169.761 159.22C170.209 159.06 170.661 158.968 171.117 158.944C171.573 158.912 171.989 158.944 172.365 159.04V160.696C171.893 160.576 171.377 160.548 170.817 160.612C170.257 160.676 169.741 160.9 169.269 161.284C168.837 161.62 168.513 162.024 168.297 162.496C168.081 162.96 167.937 163.456 167.865 163.984C167.793 164.504 167.757 165.02 167.757 165.532V172H165.993ZM174.504 172L174.516 154.72H176.292V165.28L182.076 159.04H184.428L178.356 165.52L185.22 172H182.652L176.292 165.76V172H174.504ZM186.057 159.04V154.72H187.821V159.04H186.057ZM189.861 159.04V154.72H191.625V159.04H189.861ZM196.531 170.08V168.028H198.583V170.08H196.531ZM196.543 163.012V160.96H198.595V163.012H196.543ZM207.057 159.04V154.72H208.821V159.04H207.057ZM210.861 159.04V154.72H212.625V159.04H210.861ZM266.885 159.04V154.72H268.649V159.04H266.885ZM270.689 159.04V154.72H272.453V159.04H270.689ZM271.12 174.508L271.228 173.632C271.548 173.656 271.78 173.592 271.924 173.44C272.068 173.288 272.156 173.084 272.188 172.828C272.22 172.572 272.228 172.296 272.212 172H271.12V169.468H273.172V172.48C273.172 173.216 272.984 173.768 272.608 174.136C272.24 174.504 271.744 174.628 271.12 174.508ZM87.1197 199.04V194.72H88.8837V199.04H87.1197ZM90.9237 199.04V194.72H92.6877V199.04H90.9237ZM102.453 212.36C101.261 212.36 100.253 212.06 99.4291 211.46C98.6051 210.852 97.9811 210.032 97.5571 209C97.1331 207.96 96.9211 206.796 96.9211 205.508C96.9211 204.196 97.1331 203.028 97.5571 202.004C97.9891 200.972 98.6211 200.16 99.4531 199.568C100.285 198.976 101.309 198.68 102.525 198.68C103.709 198.68 104.725 198.98 105.573 199.58C106.421 200.18 107.069 200.996 107.517 202.028C107.973 203.06 108.201 204.22 108.201 205.508C108.201 206.804 107.973 207.968 107.517 209C107.061 210.032 106.405 210.852 105.549 211.46C104.693 212.06 103.661 212.36 102.453 212.36ZM96.6211 217.76V199.04H98.2051V208.796H98.3971V217.76H96.6211ZM102.273 210.716C103.177 210.716 103.929 210.488 104.529 210.032C105.129 209.576 105.577 208.956 105.873 208.172C106.177 207.38 106.329 206.492 106.329 205.508C106.329 204.532 106.181 203.652 105.885 202.868C105.589 202.084 105.137 201.464 104.529 201.008C103.929 200.552 103.165 200.324 102.237 200.324C101.333 200.324 100.581 200.544 99.9811 200.984C99.3891 201.424 98.9451 202.036 98.6491 202.82C98.3531 203.596 98.2051 204.492 98.2051 205.508C98.2051 206.508 98.3531 207.404 98.6491 208.196C98.9451 208.98 99.3931 209.596 99.9931 210.044C100.593 210.492 101.353 210.716 102.273 210.716ZM120.071 212V205.388C120.071 204.668 120.003 204.008 119.867 203.408C119.731 202.8 119.511 202.272 119.207 201.824C118.911 201.368 118.523 201.016 118.043 200.768C117.571 200.52 116.995 200.396 116.315 200.396C115.691 200.396 115.139 200.504 114.659 200.72C114.187 200.936 113.787 201.248 113.459 201.656C113.139 202.056 112.895 202.544 112.727 203.12C112.559 203.696 112.475 204.352 112.475 205.088L111.227 204.812C111.227 203.484 111.459 202.368 111.923 201.464C112.387 200.56 113.027 199.876 113.843 199.412C114.659 198.948 115.595 198.716 116.651 198.716C117.427 198.716 118.103 198.836 118.679 199.076C119.263 199.316 119.755 199.64 120.155 200.048C120.563 200.456 120.891 200.924 121.139 201.452C121.387 201.972 121.567 202.528 121.679 203.12C121.791 203.704 121.847 204.288 121.847 204.872V212H120.071ZM110.699 212V194.72H112.295V204.476H112.475V212H110.699ZM130.248 212.36C128.96 212.36 127.86 212.068 126.948 211.484C126.036 210.9 125.336 210.092 124.848 209.06C124.36 208.028 124.116 206.844 124.116 205.508C124.116 204.148 124.364 202.956 124.86 201.932C125.356 200.908 126.06 200.112 126.972 199.544C127.892 198.968 128.984 198.68 130.248 198.68C131.544 198.68 132.648 198.972 133.56 199.556C134.48 200.132 135.18 200.936 135.66 201.968C136.148 202.992 136.392 204.172 136.392 205.508C136.392 206.868 136.148 208.064 135.66 209.096C135.172 210.12 134.468 210.92 133.548 211.496C132.628 212.072 131.528 212.36 130.248 212.36ZM130.248 210.668C131.688 210.668 132.76 210.192 133.464 209.24C134.168 208.28 134.52 207.036 134.52 205.508C134.52 203.94 134.164 202.692 133.452 201.764C132.748 200.836 131.68 200.372 130.248 200.372C129.28 200.372 128.48 200.592 127.848 201.032C127.224 201.464 126.756 202.068 126.444 202.844C126.14 203.612 125.988 204.5 125.988 205.508C125.988 207.068 126.348 208.32 127.068 209.264C127.788 210.2 128.848 210.668 130.248 210.668ZM148.274 212V205.388C148.274 204.668 148.206 204.008 148.07 203.408C147.934 202.8 147.714 202.272 147.41 201.824C147.114 201.368 146.726 201.016 146.246 200.768C145.774 200.52 145.198 200.396 144.518 200.396C143.894 200.396 143.342 200.504 142.862 200.72C142.39 200.936 141.99 201.248 141.662 201.656C141.342 202.056 141.098 202.544 140.93 203.12C140.762 203.696 140.678 204.352 140.678 205.088L139.43 204.812C139.43 203.484 139.662 202.368 140.126 201.464C140.59 200.56 141.23 199.876 142.046 199.412C142.862 198.948 143.798 198.716 144.854 198.716C145.63 198.716 146.306 198.836 146.882 199.076C147.466 199.316 147.958 199.64 148.358 200.048C148.766 200.456 149.094 200.924 149.342 201.452C149.59 201.972 149.77 202.528 149.882 203.12C149.994 203.704 150.05 204.288 150.05 204.872V212H148.274ZM138.902 212V199.04H140.498V202.232H140.678V212H138.902ZM158.453 212.36C157.189 212.36 156.093 212.08 155.165 211.52C154.245 210.96 153.529 210.172 153.017 209.156C152.505 208.14 152.249 206.948 152.249 205.58C152.249 204.164 152.501 202.94 153.005 201.908C153.509 200.876 154.217 200.08 155.129 199.52C156.049 198.96 157.133 198.68 158.381 198.68C159.661 198.68 160.753 198.976 161.657 199.568C162.561 200.152 163.245 200.992 163.709 202.088C164.173 203.184 164.385 204.492 164.345 206.012H162.545V205.388C162.513 203.708 162.149 202.44 161.453 201.584C160.765 200.728 159.757 200.3 158.429 200.3C157.037 200.3 155.969 200.752 155.225 201.656C154.489 202.56 154.121 203.848 154.121 205.52C154.121 207.152 154.489 208.42 155.225 209.324C155.969 210.22 157.021 210.668 158.381 210.668C159.309 210.668 160.117 210.456 160.805 210.032C161.501 209.6 162.049 208.98 162.449 208.172L164.093 208.808C163.581 209.936 162.825 210.812 161.825 211.436C160.833 212.052 159.709 212.36 158.453 212.36ZM153.497 206.012V204.536H163.397V206.012H153.497ZM175.892 212V205.388C175.892 204.668 175.824 204.008 175.688 203.408C175.552 202.8 175.332 202.272 175.028 201.824C174.732 201.368 174.344 201.016 173.864 200.768C173.392 200.52 172.816 200.396 172.136 200.396C171.512 200.396 170.96 200.504 170.48 200.72C170.008 200.936 169.608 201.248 169.28 201.656C168.96 202.056 168.716 202.544 168.548 203.12C168.38 203.696 168.296 204.352 168.296 205.088L167.048 204.812C167.048 203.484 167.28 202.368 167.744 201.464C168.208 200.56 168.848 199.876 169.664 199.412C170.48 198.948 171.416 198.716 172.472 198.716C173.248 198.716 173.924 198.836 174.5 199.076C175.084 199.316 175.576 199.64 175.976 200.048C176.384 200.456 176.712 200.924 176.96 201.452C177.208 201.972 177.388 202.528 177.5 203.12C177.612 203.704 177.668 204.288 177.668 204.872V212H175.892ZM166.52 212V199.04H168.116V202.232H168.296V212H166.52ZM185.613 212.324C184.837 212.324 184.157 212.204 183.573 211.964C182.997 211.724 182.505 211.4 182.097 210.992C181.697 210.584 181.373 210.12 181.125 209.6C180.877 209.072 180.697 208.516 180.585 207.932C180.473 207.34 180.417 206.752 180.417 206.168V199.04H182.193V205.652C182.193 206.364 182.261 207.024 182.397 207.632C182.533 208.24 182.749 208.772 183.045 209.228C183.349 209.676 183.737 210.024 184.209 210.272C184.689 210.52 185.269 210.644 185.949 210.644C186.573 210.644 187.121 210.536 187.593 210.32C188.073 210.104 188.473 209.796 188.793 209.396C189.121 208.988 189.369 208.496 189.537 207.92C189.705 207.336 189.789 206.68 189.789 205.952L191.037 206.228C191.037 207.556 190.805 208.672 190.341 209.576C189.877 210.48 189.237 211.164 188.421 211.628C187.605 212.092 186.669 212.324 185.613 212.324ZM189.969 212V208.808H189.789V199.04H191.553V212H189.969ZM210.238 212L210.25 203.492C210.25 202.492 209.97 201.708 209.41 201.14C208.858 200.564 208.154 200.276 207.298 200.276C206.81 200.276 206.334 200.388 205.87 200.612C205.406 200.836 205.022 201.196 204.718 201.692C204.422 202.188 204.274 202.836 204.274 203.636L203.23 203.336C203.206 202.408 203.386 201.596 203.77 200.9C204.162 200.204 204.698 199.664 205.378 199.28C206.066 198.888 206.842 198.692 207.706 198.692C209.01 198.692 210.054 199.096 210.838 199.904C211.622 200.704 212.014 201.788 212.014 203.156L212.002 212H210.238ZM194.77 212V199.04H196.354V202.232H196.546V212H194.77ZM202.522 212L202.534 203.612C202.534 202.58 202.258 201.768 201.706 201.176C201.162 200.576 200.442 200.276 199.546 200.276C198.65 200.276 197.926 200.584 197.374 201.2C196.822 201.808 196.546 202.62 196.546 203.636L195.49 203.06C195.49 202.228 195.686 201.484 196.078 200.828C196.47 200.164 197.006 199.644 197.686 199.268C198.366 198.884 199.138 198.692 200.002 198.692C200.826 198.692 201.558 198.868 202.198 199.22C202.846 199.572 203.354 200.084 203.722 200.756C204.09 201.428 204.274 202.244 204.274 203.204L204.262 212H202.522ZM220.82 212.36C219.628 212.36 218.62 212.06 217.796 211.46C216.972 210.852 216.348 210.032 215.924 209C215.5 207.96 215.288 206.796 215.288 205.508C215.288 204.196 215.5 203.028 215.924 202.004C216.356 200.972 216.988 200.16 217.82 199.568C218.652 198.976 219.676 198.68 220.892 198.68C222.076 198.68 223.092 198.98 223.94 199.58C224.788 200.18 225.436 200.996 225.884 202.028C226.34 203.06 226.568 204.22 226.568 205.508C226.568 206.804 226.34 207.968 225.884 209C225.428 210.032 224.772 210.852 223.916 211.46C223.06 212.06 222.028 212.36 220.82 212.36ZM214.988 212V194.72H216.764V202.244H216.572V212H214.988ZM220.64 210.716C221.544 210.716 222.296 210.488 222.896 210.032C223.496 209.576 223.944 208.956 224.24 208.172C224.544 207.38 224.696 206.492 224.696 205.508C224.696 204.532 224.548 203.652 224.252 202.868C223.956 202.084 223.504 201.464 222.896 201.008C222.296 200.552 221.532 200.324 220.604 200.324C219.7 200.324 218.948 200.544 218.348 200.984C217.756 201.424 217.312 202.036 217.016 202.82C216.72 203.596 216.572 204.492 216.572 205.508C216.572 206.508 216.72 207.404 217.016 208.196C217.312 208.98 217.76 209.596 218.36 210.044C218.96 210.492 219.72 210.716 220.64 210.716ZM234.562 212.36C233.298 212.36 232.202 212.08 231.274 211.52C230.354 210.96 229.638 210.172 229.126 209.156C228.614 208.14 228.358 206.948 228.358 205.58C228.358 204.164 228.61 202.94 229.114 201.908C229.618 200.876 230.326 200.08 231.238 199.52C232.158 198.96 233.242 198.68 234.49 198.68C235.77 198.68 236.862 198.976 237.766 199.568C238.67 200.152 239.354 200.992 239.818 202.088C240.282 203.184 240.494 204.492 240.454 206.012H238.654V205.388C238.622 203.708 238.258 202.44 237.562 201.584C236.874 200.728 235.866 200.3 234.538 200.3C233.146 200.3 232.078 200.752 231.334 201.656C230.598 202.56 230.23 203.848 230.23 205.52C230.23 207.152 230.598 208.42 231.334 209.324C232.078 210.22 233.13 210.668 234.49 210.668C235.418 210.668 236.226 210.456 236.914 210.032C237.61 209.6 238.158 208.98 238.558 208.172L240.202 208.808C239.69 209.936 238.934 210.812 237.934 211.436C236.942 212.052 235.818 212.36 234.562 212.36ZM229.606 206.012V204.536H239.506V206.012H229.606ZM242.993 212V199.04H244.577V202.16L244.265 201.752C244.409 201.368 244.597 201.016 244.829 200.696C245.061 200.368 245.313 200.1 245.585 199.892C245.921 199.596 246.313 199.372 246.761 199.22C247.209 199.06 247.661 198.968 248.117 198.944C248.573 198.912 248.989 198.944 249.365 199.04V200.696C248.893 200.576 248.377 200.548 247.817 200.612C247.257 200.676 246.741 200.9 246.269 201.284C245.837 201.62 245.513 202.024 245.297 202.496C245.081 202.96 244.937 203.456 244.865 203.984C244.793 204.504 244.757 205.02 244.757 205.532V212H242.993ZM251.276 199.04V194.72H253.04V199.04H251.276ZM255.08 199.04V194.72H256.844V199.04H255.08ZM261.749 210.08V208.028H263.801V210.08H261.749ZM261.761 203.012V200.96H263.813V203.012H261.761ZM272.276 199.04V194.72H274.04V199.04H272.276ZM276.08 199.04V194.72H277.844V199.04H276.08ZM430.854 199.04V194.72H432.618V199.04H430.854ZM434.658 199.04V194.72H436.422V199.04H434.658ZM435.088 214.508L435.196 213.632C435.516 213.656 435.748 213.592 435.892 213.44C436.036 213.288 436.124 213.084 436.156 212.828C436.188 212.572 436.196 212.296 436.18 212H435.088V209.468H437.14V212.48C437.14 213.216 436.952 213.768 436.576 214.136C436.208 214.504 435.712 214.628 435.088 214.508ZM87.1197 239.04V234.72H88.8837V239.04H87.1197ZM90.9237 239.04V234.72H92.6877V239.04H90.9237ZM103.689 252C102.961 252.152 102.241 252.212 101.529 252.18C100.825 252.148 100.193 251.996 99.6331 251.724C99.0811 251.452 98.6611 251.028 98.3731 250.452C98.1411 249.972 98.0131 249.488 97.9891 249C97.9731 248.504 97.9651 247.94 97.9651 247.308V235.44H99.7171V247.236C99.7171 247.78 99.7211 248.236 99.7291 248.604C99.7451 248.964 99.8291 249.284 99.9811 249.564C100.269 250.1 100.725 250.42 101.349 250.524C101.981 250.628 102.761 250.604 103.689 250.452V252ZM95.1931 240.552V239.04H103.689V240.552H95.1931ZM106.118 252V239.04H107.702V242.16L107.39 241.752C107.534 241.368 107.722 241.016 107.954 240.696C108.186 240.368 108.438 240.1 108.71 239.892C109.046 239.596 109.438 239.372 109.886 239.22C110.334 239.06 110.786 238.968 111.242 238.944C111.698 238.912 112.114 238.944 112.49 239.04V240.696C112.018 240.576 111.502 240.548 110.942 240.612C110.382 240.676 109.866 240.9 109.394 241.284C108.962 241.62 108.638 242.024 108.422 242.496C108.206 242.96 108.062 243.456 107.99 243.984C107.918 244.504 107.882 245.02 107.882 245.532V252H106.118ZM117.857 252.36C116.881 252.36 116.061 252.184 115.397 251.832C114.741 251.48 114.249 251.012 113.921 250.428C113.593 249.844 113.429 249.208 113.429 248.52C113.429 247.816 113.569 247.216 113.849 246.72C114.137 246.216 114.525 245.804 115.013 245.484C115.509 245.164 116.081 244.92 116.729 244.752C117.385 244.592 118.109 244.452 118.901 244.332C119.701 244.204 120.481 244.096 121.241 244.008C122.009 243.912 122.681 243.82 123.257 243.732L122.633 244.116C122.657 242.836 122.409 241.888 121.889 241.272C121.369 240.656 120.465 240.348 119.177 240.348C118.289 240.348 117.537 240.548 116.921 240.948C116.313 241.348 115.885 241.98 115.637 242.844L113.921 242.34C114.217 241.18 114.813 240.28 115.709 239.64C116.605 239 117.769 238.68 119.201 238.68C120.385 238.68 121.389 238.904 122.213 239.352C123.045 239.792 123.633 240.432 123.977 241.272C124.137 241.648 124.241 242.068 124.289 242.532C124.337 242.996 124.361 243.468 124.361 243.948V252H122.789V248.748L123.245 248.94C122.805 250.052 122.121 250.9 121.193 251.484C120.265 252.068 119.153 252.36 117.857 252.36ZM118.061 250.836C118.885 250.836 119.605 250.688 120.221 250.392C120.837 250.096 121.333 249.692 121.709 249.18C122.085 248.66 122.329 248.076 122.441 247.428C122.537 247.012 122.589 246.556 122.597 246.06C122.605 245.556 122.609 245.18 122.609 244.932L123.281 245.28C122.681 245.36 122.029 245.44 121.325 245.52C120.629 245.6 119.941 245.692 119.261 245.796C118.589 245.9 117.981 246.024 117.437 246.168C117.069 246.272 116.713 246.42 116.369 246.612C116.025 246.796 115.741 247.044 115.517 247.356C115.301 247.668 115.193 248.056 115.193 248.52C115.193 248.896 115.285 249.26 115.469 249.612C115.661 249.964 115.965 250.256 116.381 250.488C116.805 250.72 117.365 250.836 118.061 250.836ZM136.72 252V245.388C136.72 244.668 136.652 244.008 136.516 243.408C136.38 242.8 136.16 242.272 135.856 241.824C135.56 241.368 135.172 241.016 134.692 240.768C134.22 240.52 133.644 240.396 132.964 240.396C132.34 240.396 131.788 240.504 131.308 240.72C130.836 240.936 130.436 241.248 130.108 241.656C129.788 242.056 129.544 242.544 129.376 243.12C129.208 243.696 129.124 244.352 129.124 245.088L127.876 244.812C127.876 243.484 128.108 242.368 128.572 241.464C129.036 240.56 129.676 239.876 130.492 239.412C131.308 238.948 132.244 238.716 133.3 238.716C134.076 238.716 134.752 238.836 135.328 239.076C135.912 239.316 136.404 239.64 136.804 240.048C137.212 240.456 137.54 240.924 137.788 241.452C138.036 241.972 138.216 242.528 138.328 243.12C138.44 243.704 138.496 244.288 138.496 244.872V252H136.72ZM127.348 252V239.04H128.944V242.232H129.124V252H127.348ZM146.321 252.348C144.801 252.348 143.549 252.02 142.565 251.364C141.589 250.708 140.989 249.796 140.765 248.628L142.565 248.328C142.757 249.064 143.193 249.652 143.873 250.092C144.561 250.524 145.409 250.74 146.417 250.74C147.401 250.74 148.177 250.536 148.745 250.128C149.313 249.712 149.597 249.148 149.597 248.436C149.597 248.036 149.505 247.712 149.321 247.464C149.145 247.208 148.781 246.972 148.229 246.756C147.677 246.54 146.853 246.284 145.757 245.988C144.581 245.668 143.661 245.348 142.997 245.028C142.333 244.708 141.861 244.34 141.581 243.924C141.301 243.5 141.161 242.984 141.161 242.376C141.161 241.64 141.369 240.996 141.785 240.444C142.201 239.884 142.777 239.452 143.513 239.148C144.249 238.836 145.105 238.68 146.081 238.68C147.057 238.68 147.929 238.84 148.697 239.16C149.473 239.472 150.097 239.912 150.569 240.48C151.041 241.048 151.321 241.708 151.409 242.46L149.609 242.784C149.489 242.024 149.109 241.424 148.469 240.984C147.837 240.536 147.033 240.304 146.057 240.288C145.137 240.264 144.389 240.44 143.813 240.816C143.237 241.184 142.949 241.676 142.949 242.292C142.949 242.636 143.053 242.932 143.261 243.18C143.469 243.42 143.845 243.648 144.389 243.864C144.941 244.08 145.725 244.316 146.741 244.572C147.933 244.876 148.869 245.196 149.549 245.532C150.229 245.868 150.713 246.264 151.001 246.72C151.289 247.176 151.433 247.74 151.433 248.412C151.433 249.636 150.977 250.6 150.065 251.304C149.161 252 147.913 252.348 146.321 252.348ZM157.677 252.36C156.701 252.36 155.881 252.184 155.217 251.832C154.561 251.48 154.069 251.012 153.741 250.428C153.413 249.844 153.249 249.208 153.249 248.52C153.249 247.816 153.389 247.216 153.669 246.72C153.957 246.216 154.345 245.804 154.833 245.484C155.329 245.164 155.901 244.92 156.549 244.752C157.205 244.592 157.929 244.452 158.721 244.332C159.521 244.204 160.301 244.096 161.061 244.008C161.829 243.912 162.501 243.82 163.077 243.732L162.453 244.116C162.477 242.836 162.229 241.888 161.709 241.272C161.189 240.656 160.285 240.348 158.997 240.348C158.109 240.348 157.357 240.548 156.741 240.948C156.133 241.348 155.705 241.98 155.457 242.844L153.741 242.34C154.037 241.18 154.633 240.28 155.529 239.64C156.425 239 157.589 238.68 159.021 238.68C160.205 238.68 161.209 238.904 162.033 239.352C162.865 239.792 163.453 240.432 163.797 241.272C163.957 241.648 164.061 242.068 164.109 242.532C164.157 242.996 164.181 243.468 164.181 243.948V252H162.609V248.748L163.065 248.94C162.625 250.052 161.941 250.9 161.013 251.484C160.085 252.068 158.973 252.36 157.677 252.36ZM157.881 250.836C158.705 250.836 159.425 250.688 160.041 250.392C160.657 250.096 161.153 249.692 161.529 249.18C161.905 248.66 162.149 248.076 162.261 247.428C162.357 247.012 162.409 246.556 162.417 246.06C162.425 245.556 162.429 245.18 162.429 244.932L163.101 245.28C162.501 245.36 161.849 245.44 161.145 245.52C160.449 245.6 159.761 245.692 159.081 245.796C158.409 245.9 157.801 246.024 157.257 246.168C156.889 246.272 156.533 246.42 156.189 246.612C155.845 246.796 155.561 247.044 155.337 247.356C155.121 247.668 155.013 248.056 155.013 248.52C155.013 248.896 155.105 249.26 155.289 249.612C155.481 249.964 155.785 250.256 156.201 250.488C156.625 250.72 157.185 250.836 157.881 250.836ZM172.556 252.36C171.252 252.36 170.148 252.068 169.244 251.484C168.34 250.9 167.652 250.096 167.18 249.072C166.716 248.04 166.476 246.856 166.46 245.52C166.476 244.16 166.724 242.968 167.204 241.944C167.684 240.912 168.376 240.112 169.28 239.544C170.184 238.968 171.28 238.68 172.568 238.68C173.88 238.68 175.02 239 175.988 239.64C176.964 240.28 177.632 241.156 177.992 242.268L176.264 242.82C175.96 242.044 175.476 241.444 174.812 241.02C174.156 240.588 173.404 240.372 172.556 240.372C171.604 240.372 170.816 240.592 170.192 241.032C169.568 241.464 169.104 242.068 168.8 242.844C168.496 243.62 168.34 244.512 168.332 245.52C168.348 247.072 168.708 248.32 169.412 249.264C170.116 250.2 171.164 250.668 172.556 250.668C173.436 250.668 174.184 250.468 174.8 250.068C175.424 249.66 175.896 249.068 176.216 248.292L177.992 248.82C177.512 249.972 176.808 250.852 175.88 251.46C174.952 252.06 173.844 252.36 172.556 252.36ZM187.4 252C186.672 252.152 185.952 252.212 185.24 252.18C184.536 252.148 183.904 251.996 183.344 251.724C182.792 251.452 182.372 251.028 182.084 250.452C181.852 249.972 181.724 249.488 181.7 249C181.684 248.504 181.676 247.94 181.676 247.308V235.44H183.428V247.236C183.428 247.78 183.432 248.236 183.44 248.604C183.456 248.964 183.54 249.284 183.692 249.564C183.98 250.1 184.436 250.42 185.06 250.524C185.692 250.628 186.472 250.604 187.4 250.452V252ZM178.904 240.552V239.04H187.4V240.552H178.904ZM190.068 236.58V234.6H191.832V236.58H190.068ZM190.068 252V239.04H191.832V252H190.068ZM200.717 252.36C199.429 252.36 198.329 252.068 197.417 251.484C196.505 250.9 195.805 250.092 195.317 249.06C194.829 248.028 194.585 246.844 194.585 245.508C194.585 244.148 194.833 242.956 195.329 241.932C195.825 240.908 196.529 240.112 197.441 239.544C198.361 238.968 199.453 238.68 200.717 238.68C202.013 238.68 203.117 238.972 204.029 239.556C204.949 240.132 205.649 240.936 206.129 241.968C206.617 242.992 206.861 244.172 206.861 245.508C206.861 246.868 206.617 248.064 206.129 249.096C205.641 250.12 204.937 250.92 204.017 251.496C203.097 252.072 201.997 252.36 200.717 252.36ZM200.717 250.668C202.157 250.668 203.229 250.192 203.933 249.24C204.637 248.28 204.989 247.036 204.989 245.508C204.989 243.94 204.633 242.692 203.921 241.764C203.217 240.836 202.149 240.372 200.717 240.372C199.749 240.372 198.949 240.592 198.317 241.032C197.693 241.464 197.225 242.068 196.913 242.844C196.609 243.612 196.457 244.5 196.457 245.508C196.457 247.068 196.817 248.32 197.537 249.264C198.257 250.2 199.317 250.668 200.717 250.668ZM218.743 252V245.388C218.743 244.668 218.675 244.008 218.539 243.408C218.403 242.8 218.183 242.272 217.879 241.824C217.583 241.368 217.195 241.016 216.715 240.768C216.243 240.52 215.667 240.396 214.987 240.396C214.363 240.396 213.811 240.504 213.331 240.72C212.859 240.936 212.459 241.248 212.131 241.656C211.811 242.056 211.567 242.544 211.399 243.12C211.231 243.696 211.147 244.352 211.147 245.088L209.899 244.812C209.899 243.484 210.131 242.368 210.595 241.464C211.059 240.56 211.699 239.876 212.515 239.412C213.331 238.948 214.267 238.716 215.323 238.716C216.099 238.716 216.775 238.836 217.351 239.076C217.935 239.316 218.427 239.64 218.827 240.048C219.235 240.456 219.563 240.924 219.811 241.452C220.059 241.972 220.239 242.528 220.351 243.12C220.463 243.704 220.519 244.288 220.519 244.872V252H218.743ZM209.371 252V239.04H210.967V242.232H211.147V252H209.371ZM221.828 254.556V253.044H237.668V254.556H221.828ZM239.467 236.58V234.6H241.231V236.58H239.467ZM239.467 252V239.04H241.231V252H239.467ZM249.731 252.36C248.523 252.36 247.491 252.06 246.635 251.46C245.779 250.852 245.123 250.032 244.667 249C244.211 247.968 243.983 246.804 243.983 245.508C243.983 244.22 244.207 243.06 244.655 242.028C245.111 240.996 245.763 240.18 246.611 239.58C247.459 238.98 248.475 238.68 249.659 238.68C250.875 238.68 251.899 238.976 252.731 239.568C253.563 240.16 254.191 240.972 254.615 242.004C255.047 243.028 255.263 244.196 255.263 245.508C255.263 246.796 255.051 247.96 254.627 249C254.203 250.032 253.579 250.852 252.755 251.46C251.931 252.06 250.923 252.36 249.731 252.36ZM249.911 250.716C250.831 250.716 251.591 250.492 252.191 250.044C252.791 249.596 253.239 248.98 253.535 248.196C253.831 247.404 253.979 246.508 253.979 245.508C253.979 244.492 253.831 243.596 253.535 242.82C253.239 242.036 252.791 241.424 252.191 240.984C251.599 240.544 250.851 240.324 249.947 240.324C249.019 240.324 248.251 240.552 247.643 241.008C247.035 241.464 246.583 242.084 246.287 242.868C245.999 243.652 245.855 244.532 245.855 245.508C245.855 246.492 246.003 247.38 246.299 248.172C246.603 248.956 247.055 249.576 247.655 250.032C248.255 250.488 249.007 250.716 249.911 250.716ZM253.979 252V242.244H253.787V234.72H255.563V252H253.979ZM258.565 239.04V234.72H260.329V239.04H258.565ZM262.369 239.04V234.72H264.133V239.04H262.369ZM269.038 250.08V248.028H271.09V250.08H269.038ZM269.05 243.012V240.96H271.102V243.012H269.05ZM279.565 239.04V234.72H281.329V239.04H279.565ZM283.369 239.04V234.72H285.133V239.04H283.369ZM554.529 239.592L554.637 238.716C554.957 238.74 555.189 238.676 555.333 238.524C555.477 238.372 555.565 238.168 555.597 237.912C555.629 237.656 555.637 237.38 555.621 237.084H554.529V234.552H556.581V237.564C556.581 238.3 556.393 238.852 556.017 239.22C555.649 239.588 555.153 239.712 554.529 239.592ZM557.577 239.592L557.685 238.716C558.005 238.74 558.237 238.676 558.381 238.524C558.525 238.372 558.613 238.168 558.645 237.912C558.677 237.656 558.685 237.38 558.669 237.084H557.577V234.552H559.629V237.564C559.629 238.3 559.441 238.852 559.065 239.22C558.697 239.588 558.201 239.712 557.577 239.592ZM83.472 297.232H82.044V295.54H83.388C83.74 295.54 84.036 295.42 84.276 295.18C84.516 294.94 84.636 294.652 84.636 294.316V286.564C84.636 285.948 84.812 285.388 85.164 284.884L85.836 283.96L85.164 283.036C84.812 282.532 84.636 281.972 84.636 281.356V273.628C84.636 273.276 84.516 272.98 84.276 272.74C84.036 272.5 83.74 272.38 83.388 272.38H82.044V270.688H83.472C84.304 270.688 84.988 270.956 85.524 271.492C86.06 272.028 86.328 272.712 86.328 273.544V281.356C86.328 281.588 86.4 281.82 86.544 282.052L87.564 283.48C87.668 283.624 87.72 283.784 87.72 283.96C87.72 284.136 87.668 284.296 87.564 284.44L86.544 285.868C86.4 286.084 86.328 286.316 86.328 286.564V294.388C86.328 295.212 86.06 295.892 85.524 296.428C84.988 296.964 84.304 297.232 83.472 297.232Z" fill="white"/>
<path d="M217.178 132.36C216.282 132.36 215.454 132.176 214.694 131.808C213.934 131.44 213.286 130.932 212.75 130.284C212.214 129.636 211.83 128.892 211.598 128.052L213.29 127.596C213.442 128.22 213.718 128.76 214.118 129.216C214.518 129.664 214.986 130.012 215.522 130.26C216.066 130.508 216.634 130.632 217.226 130.632C217.994 130.632 218.682 130.448 219.29 130.08C219.906 129.704 220.394 129.208 220.754 128.592C221.114 127.976 221.294 127.3 221.294 126.564C221.294 125.804 221.106 125.12 220.73 124.512C220.354 123.896 219.858 123.408 219.242 123.048C218.626 122.688 217.954 122.508 217.226 122.508C216.41 122.508 215.706 122.688 215.114 123.048C214.522 123.4 214.05 123.844 213.698 124.38L212.09 123.708L212.618 114.72H221.846V116.412H213.398L214.274 115.584L213.806 123.252L213.362 122.664C213.858 122.096 214.458 121.652 215.162 121.332C215.866 121.012 216.606 120.852 217.382 120.852C218.446 120.852 219.406 121.108 220.262 121.62C221.118 122.124 221.798 122.808 222.302 123.672C222.806 124.536 223.058 125.5 223.058 126.564C223.058 127.62 222.79 128.588 222.254 129.468C221.718 130.34 221.006 131.04 220.118 131.568C219.23 132.096 218.25 132.36 217.178 132.36ZM216.571 172V154.72H218.191L224.983 169.252L231.739 154.72H233.383V171.988H231.703V158.656L225.547 172H224.407L218.263 158.656V172H216.571ZM241.221 172V156.412H235.185V154.72H249.021V156.412H242.985V172H241.221ZM250.821 172V154.72H252.597L262.113 168.88V154.72H263.889V172H262.113L252.597 157.828V172H250.821Z" fill="#FBBC05"/>
<path d="M287.429 212.36C286.365 212.36 285.405 212.112 284.549 211.616C283.701 211.12 283.029 210.448 282.533 209.6C282.037 208.744 281.789 207.784 281.789 206.72V200C281.789 198.936 282.037 197.98 282.533 197.132C283.029 196.276 283.701 195.6 284.549 195.104C285.405 194.608 286.365 194.36 287.429 194.36C288.493 194.36 289.449 194.608 290.297 195.104C291.153 195.6 291.829 196.276 292.325 197.132C292.821 197.98 293.069 198.936 293.069 200V206.72C293.069 207.784 292.821 208.744 292.325 209.6C291.829 210.448 291.153 211.12 290.297 211.616C289.449 212.112 288.493 212.36 287.429 212.36ZM287.429 210.656C288.141 210.656 288.789 210.484 289.373 210.14C289.957 209.788 290.421 209.32 290.765 208.736C291.109 208.152 291.281 207.508 291.281 206.804V199.916C291.281 199.204 291.109 198.556 290.765 197.972C290.421 197.388 289.957 196.924 289.373 196.58C288.789 196.228 288.141 196.052 287.429 196.052C286.717 196.052 286.069 196.228 285.485 196.58C284.901 196.924 284.437 197.388 284.093 197.972C283.749 198.556 283.577 199.204 283.577 199.916V206.804C283.577 207.508 283.749 208.152 284.093 208.736C284.437 209.32 284.901 209.788 285.485 210.14C286.069 210.484 286.717 210.656 287.429 210.656ZM301.581 212.36C300.501 212.36 299.545 212.144 298.713 211.712C297.889 211.28 297.241 210.676 296.769 209.9C296.305 209.116 296.073 208.2 296.073 207.152C296.073 206.08 296.333 205.128 296.853 204.296C297.373 203.456 298.165 202.82 299.229 202.388L299.205 203.084C298.317 202.756 297.641 202.22 297.177 201.476C296.713 200.732 296.481 199.908 296.481 199.004C296.481 198.044 296.701 197.22 297.141 196.532C297.581 195.836 298.181 195.3 298.941 194.924C299.709 194.548 300.589 194.36 301.581 194.36C302.573 194.36 303.453 194.548 304.221 194.924C304.989 195.3 305.593 195.836 306.033 196.532C306.473 197.22 306.693 198.044 306.693 199.004C306.693 199.908 306.469 200.728 306.021 201.464C305.581 202.2 304.905 202.74 303.993 203.084L303.933 202.388C304.997 202.812 305.793 203.444 306.321 204.284C306.857 205.124 307.125 206.08 307.125 207.152C307.125 208.2 306.889 209.116 306.417 209.9C305.945 210.676 305.293 211.28 304.461 211.712C303.629 212.144 302.669 212.36 301.581 212.36ZM301.581 210.668C302.669 210.668 303.553 210.368 304.233 209.768C304.913 209.16 305.253 208.288 305.253 207.152C305.253 206 304.917 205.128 304.245 204.536C303.573 203.936 302.685 203.636 301.581 203.636C300.477 203.636 299.593 203.936 298.929 204.536C298.265 205.128 297.933 206 297.933 207.152C297.933 208.288 298.269 209.16 298.941 209.768C299.613 210.368 300.493 210.668 301.581 210.668ZM301.581 201.932C302.541 201.932 303.321 201.688 303.921 201.2C304.521 200.704 304.821 199.972 304.821 199.004C304.821 198.036 304.521 197.312 303.921 196.832C303.321 196.344 302.541 196.1 301.581 196.1C300.621 196.1 299.841 196.344 299.241 196.832C298.649 197.312 298.353 198.036 298.353 199.004C298.353 199.972 298.649 200.704 299.241 201.2C299.841 201.688 300.621 201.932 301.581 201.932ZM313.122 212V196.688L309.87 198.644V196.664L313.122 194.72H314.91V212H313.122ZM324.976 212.36C323.912 212.36 322.952 212.112 322.096 211.616C321.248 211.12 320.576 210.448 320.08 209.6C319.584 208.744 319.336 207.784 319.336 206.72V200C319.336 198.936 319.584 197.98 320.08 197.132C320.576 196.276 321.248 195.6 322.096 195.104C322.952 194.608 323.912 194.36 324.976 194.36C326.04 194.36 326.996 194.608 327.844 195.104C328.7 195.6 329.376 196.276 329.872 197.132C330.368 197.98 330.616 198.936 330.616 200V206.72C330.616 207.784 330.368 208.744 329.872 209.6C329.376 210.448 328.7 211.12 327.844 211.616C326.996 212.112 326.04 212.36 324.976 212.36ZM324.976 210.656C325.688 210.656 326.336 210.484 326.92 210.14C327.504 209.788 327.968 209.32 328.312 208.736C328.656 208.152 328.828 207.508 328.828 206.804V199.916C328.828 199.204 328.656 198.556 328.312 197.972C327.968 197.388 327.504 196.924 326.92 196.58C326.336 196.228 325.688 196.052 324.976 196.052C324.264 196.052 323.616 196.228 323.032 196.58C322.448 196.924 321.984 197.388 321.64 197.972C321.296 198.556 321.124 199.204 321.124 199.916V206.804C321.124 207.508 321.296 208.152 321.64 208.736C321.984 209.32 322.448 209.788 323.032 210.14C323.616 210.484 324.264 210.656 324.976 210.656ZM333.38 211.988L333.392 210.38L341.204 203.324C341.876 202.716 342.32 202.14 342.536 201.596C342.76 201.044 342.872 200.468 342.872 199.868C342.872 199.156 342.704 198.512 342.368 197.936C342.032 197.36 341.58 196.904 341.012 196.568C340.444 196.224 339.808 196.052 339.104 196.052C338.368 196.052 337.712 196.228 337.136 196.58C336.56 196.932 336.104 197.396 335.768 197.972C335.44 198.548 335.28 199.176 335.288 199.856H333.488C333.488 198.808 333.736 197.868 334.232 197.036C334.728 196.204 335.4 195.552 336.248 195.08C337.096 194.6 338.056 194.36 339.128 194.36C340.176 194.36 341.116 194.608 341.948 195.104C342.788 195.592 343.448 196.256 343.928 197.096C344.416 197.928 344.66 198.856 344.66 199.88C344.66 200.6 344.572 201.236 344.396 201.788C344.228 202.332 343.96 202.84 343.592 203.312C343.232 203.776 342.772 204.256 342.212 204.752L335.276 211.016L335 210.296H344.66V211.988H333.38ZM352.066 212.348C351.21 212.348 350.422 212.196 349.702 211.892C348.982 211.588 348.362 211.156 347.842 210.596C347.322 210.028 346.942 209.352 346.702 208.568L348.382 208.064C348.67 208.92 349.142 209.568 349.798 210.008C350.462 210.448 351.21 210.66 352.042 210.644C352.81 210.628 353.47 210.456 354.022 210.128C354.582 209.8 355.01 209.344 355.306 208.76C355.602 208.176 355.75 207.5 355.75 206.732C355.75 205.556 355.406 204.612 354.718 203.9C354.038 203.18 353.138 202.82 352.018 202.82C351.706 202.82 351.378 202.864 351.034 202.952C350.69 203.032 350.37 203.148 350.074 203.3L349.186 201.896L355.906 195.692L356.194 196.412H347.386V194.72H357.37V196.436L351.514 202.028L351.49 201.332C352.69 201.18 353.746 201.316 354.658 201.74C355.57 202.164 356.282 202.812 356.794 203.684C357.314 204.548 357.574 205.564 357.574 206.732C357.574 207.836 357.334 208.812 356.854 209.66C356.382 210.5 355.73 211.16 354.898 211.64C354.066 212.112 353.122 212.348 352.066 212.348ZM366.203 212.36C365.139 212.36 364.179 212.112 363.323 211.616C362.475 211.12 361.803 210.448 361.307 209.6C360.811 208.744 360.563 207.784 360.563 206.72V200C360.563 198.936 360.811 197.98 361.307 197.132C361.803 196.276 362.475 195.6 363.323 195.104C364.179 194.608 365.139 194.36 366.203 194.36C367.267 194.36 368.223 194.608 369.071 195.104C369.927 195.6 370.603 196.276 371.099 197.132C371.595 197.98 371.843 198.936 371.843 200V206.72C371.843 207.784 371.595 208.744 371.099 209.6C370.603 210.448 369.927 211.12 369.071 211.616C368.223 212.112 367.267 212.36 366.203 212.36ZM366.203 210.656C366.915 210.656 367.563 210.484 368.147 210.14C368.731 209.788 369.195 209.32 369.539 208.736C369.883 208.152 370.055 207.508 370.055 206.804V199.916C370.055 199.204 369.883 198.556 369.539 197.972C369.195 197.388 368.731 196.924 368.147 196.58C367.563 196.228 366.915 196.052 366.203 196.052C365.491 196.052 364.843 196.228 364.259 196.58C363.675 196.924 363.211 197.388 362.867 197.972C362.523 198.556 362.351 199.204 362.351 199.916V206.804C362.351 207.508 362.523 208.152 362.867 208.736C363.211 209.32 363.675 209.788 364.259 210.14C364.843 210.484 365.491 210.656 366.203 210.656ZM380.726 212.36C379.662 212.36 378.702 212.112 377.846 211.616C376.998 211.12 376.326 210.448 375.83 209.6C375.334 208.744 375.086 207.784 375.086 206.72V200C375.086 198.936 375.334 197.98 375.83 197.132C376.326 196.276 376.998 195.6 377.846 195.104C378.702 194.608 379.662 194.36 380.726 194.36C381.79 194.36 382.746 194.608 383.594 195.104C384.45 195.6 385.126 196.276 385.622 197.132C386.118 197.98 386.366 198.936 386.366 200V206.72C386.366 207.784 386.118 208.744 385.622 209.6C385.126 210.448 384.45 211.12 383.594 211.616C382.746 212.112 381.79 212.36 380.726 212.36ZM380.726 210.656C381.438 210.656 382.086 210.484 382.67 210.14C383.254 209.788 383.718 209.32 384.062 208.736C384.406 208.152 384.578 207.508 384.578 206.804V199.916C384.578 199.204 384.406 198.556 384.062 197.972C383.718 197.388 383.254 196.924 382.67 196.58C382.086 196.228 381.438 196.052 380.726 196.052C380.014 196.052 379.366 196.228 378.782 196.58C378.198 196.924 377.734 197.388 377.39 197.972C377.046 198.556 376.874 199.204 376.874 199.916V206.804C376.874 207.508 377.046 208.152 377.39 208.736C377.734 209.32 378.198 209.788 378.782 210.14C379.366 210.484 380.014 210.656 380.726 210.656ZM397.218 212V208.652H389.13V206.972L394.914 194.72H396.894L391.11 206.972H397.218V201.932H398.994V206.972H400.878V208.652H398.994V212H397.218ZM408.741 212.36C407.845 212.36 407.017 212.176 406.257 211.808C405.497 211.44 404.849 210.932 404.313 210.284C403.777 209.636 403.393 208.892 403.161 208.052L404.853 207.596C405.005 208.22 405.281 208.76 405.681 209.216C406.081 209.664 406.549 210.012 407.085 210.26C407.629 210.508 408.197 210.632 408.789 210.632C409.557 210.632 410.245 210.448 410.853 210.08C411.469 209.704 411.957 209.208 412.317 208.592C412.677 207.976 412.857 207.3 412.857 206.564C412.857 205.804 412.669 205.12 412.293 204.512C411.917 203.896 411.421 203.408 410.805 203.048C410.189 202.688 409.517 202.508 408.789 202.508C407.973 202.508 407.269 202.688 406.677 203.048C406.085 203.4 405.613 203.844 405.261 204.38L403.653 203.708L404.181 194.72H413.409V196.412H404.961L405.837 195.584L405.369 203.252L404.925 202.664C405.421 202.096 406.021 201.652 406.725 201.332C407.429 201.012 408.169 200.852 408.945 200.852C410.009 200.852 410.969 201.108 411.825 201.62C412.681 202.124 413.361 202.808 413.865 203.672C414.369 204.536 414.621 205.5 414.621 206.564C414.621 207.62 414.353 208.588 413.817 209.468C413.281 210.34 412.569 211.04 411.681 211.568C410.793 212.096 409.813 212.36 408.741 212.36ZM422.467 212.36C421.572 212.36 420.744 212.176 419.984 211.808C419.224 211.44 418.576 210.932 418.04 210.284C417.504 209.636 417.12 208.892 416.888 208.052L418.58 207.596C418.732 208.22 419.008 208.76 419.408 209.216C419.808 209.664 420.276 210.012 420.812 210.26C421.356 210.508 421.924 210.632 422.516 210.632C423.284 210.632 423.972 210.448 424.58 210.08C425.196 209.704 425.684 209.208 426.044 208.592C426.404 207.976 426.584 207.3 426.584 206.564C426.584 205.804 426.396 205.12 426.02 204.512C425.644 203.896 425.148 203.408 424.532 203.048C423.916 202.688 423.244 202.508 422.516 202.508C421.7 202.508 420.996 202.688 420.404 203.048C419.812 203.4 419.34 203.844 418.988 204.38L417.38 203.708L417.908 194.72H427.136V196.412H418.688L419.564 195.584L419.096 203.252L418.652 202.664C419.148 202.096 419.748 201.652 420.452 201.332C421.156 201.012 421.896 200.852 422.672 200.852C423.736 200.852 424.696 201.108 425.552 201.62C426.408 202.124 427.088 202.808 427.592 203.672C428.096 204.536 428.348 205.5 428.348 206.564C428.348 207.62 428.08 208.588 427.544 209.468C427.008 210.34 426.296 211.04 425.408 211.568C424.52 212.096 423.54 212.36 422.467 212.36ZM287.638 252L293.626 243.252L287.794 234.72H289.93L294.67 241.776L299.41 234.72H301.558L295.726 243.252L301.702 252H299.566L294.67 244.74L289.786 252H287.638ZM302.068 252L308.056 243.252L302.224 234.72H304.36L309.1 241.776L313.84 234.72H315.988L310.156 243.252L316.132 252H313.996L309.1 244.74L304.216 252H302.068ZM316.498 252L322.486 243.252L316.654 234.72H318.79L323.53 241.776L328.27 234.72H330.418L324.586 243.252L330.562 252H328.426L323.53 244.74L318.646 252H316.498ZM330.928 252L336.916 243.252L331.083 234.72H333.22L337.96 241.776L342.7 234.72H344.848L339.016 243.252L344.992 252H342.856L337.96 244.74L333.076 252H330.928ZM345.357 252L351.345 243.252L345.513 234.72H347.649L352.389 241.776L357.129 234.72H359.277L353.445 243.252L359.421 252H357.285L352.389 244.74L347.505 252H345.357ZM360.987 244.116V242.604H368.187V244.116H360.987ZM369.74 252L375.728 243.252L369.896 234.72H372.032L376.772 241.776L381.512 234.72H383.66L377.828 243.252L383.804 252H381.668L376.772 244.74L371.888 252H369.74ZM384.17 252L390.158 243.252L384.326 234.72H386.462L391.202 241.776L395.942 234.72H398.09L392.258 243.252L398.234 252H396.098L391.202 244.74L386.318 252H384.17ZM398.599 252L404.587 243.252L398.755 234.72H400.891L405.631 241.776L410.371 234.72H412.519L406.687 243.252L412.663 252H410.527L405.631 244.74L400.747 252H398.599ZM413.029 252L419.017 243.252L413.185 234.72H415.321L420.061 241.776L424.801 234.72H426.949L421.117 243.252L427.093 252H424.957L420.061 244.74L415.177 252H413.029ZM427.459 252L433.447 243.252L427.615 234.72H429.751L434.491 241.776L439.231 234.72H441.379L435.547 243.252L441.523 252H439.387L434.491 244.74L429.607 252H427.459ZM441.888 252L447.876 243.252L442.044 234.72H444.18L448.92 241.776L453.66 234.72H455.808L449.976 243.252L455.952 252H453.816L448.92 244.74L444.036 252H441.888ZM456.318 252L462.306 243.252L456.474 234.72H458.61L463.35 241.776L468.09 234.72H470.238L464.406 243.252L470.382 252H468.246L463.35 244.74L458.466 252H456.318ZM470.748 252L476.736 243.252L470.904 234.72H473.04L477.78 241.776L482.52 234.72H484.668L478.836 243.252L484.812 252H482.676L477.78 244.74L472.896 252H470.748ZM486.378 244.116V242.604H493.578V244.116H486.378ZM495.131 252L501.119 243.252L495.287 234.72H497.423L502.163 241.776L506.903 234.72H509.051L503.219 243.252L509.195 252H507.059L502.163 244.74L497.279 252H495.131ZM509.56 252L515.548 243.252L509.716 234.72H511.852L516.592 241.776L521.332 234.72H523.48L517.648 243.252L523.624 252H521.488L516.592 244.74L511.708 252H509.56ZM523.99 252L529.978 243.252L524.146 234.72H526.282L531.022 241.776L535.762 234.72H537.91L532.078 243.252L538.054 252H535.918L531.022 244.74L526.138 252H523.99ZM538.42 252L544.408 243.252L538.576 234.72H540.712L545.452 241.776L550.192 234.72H552.34L546.508 243.252L552.484 252H550.348L545.452 244.74L540.568 252H538.42Z" fill="#FFC124"/>
<rect x="0.5" y="0.5" width="879" height="463" rx="21.5" stroke="#464646"/>
</svg>
