<svg width="inherit" height="inherit" viewBox="0 0 585 327" fill="none" xmlns="http://www.w3.org/2000/svg">
<path d="M17.7287 149.571C24.5345 141.518 34.6369 137.002 45.1763 137.302L105.75 139.026C116.289 139.326 126.118 144.409 132.455 152.837L168.874 201.27C175.21 209.697 177.365 220.551 174.727 230.759L159.567 289.43C156.93 299.638 149.787 308.09 140.161 312.393L84.8385 337.121C75.2127 341.424 64.1514 341.109 54.7859 336.266L0.959335 308.431C-8.40619 303.587 -15.0566 294.743 -17.1094 284.401L-28.9073 224.963C-30.9601 214.621 -28.1918 203.907 -21.386 195.854L17.7287 149.571Z" fill="#FFC124" stroke="#3D4095" stroke-width="2.23524"/>
<path d="M59.0595 303.795L56.7137 265.745L45.8027 270.622L42.4863 263.202L56.3069 257.025L54.6655 230.704L43.609 235.646L40.2926 228.226L54.2587 221.984L51.8104 181.361L60.1028 177.655L62.5511 218.277L81.7545 209.693L79.3062 169.071L87.744 165.3L90.1924 205.922L102.122 200.59L105.438 208.009L90.5992 214.642L92.2406 240.963L104.315 235.566L107.632 242.985L92.6474 249.683L94.9932 287.733L86.5553 291.504L84.355 253.39L65.1516 261.973L67.3519 300.088L59.0595 303.795ZM64.5993 253.318L83.8027 244.735L82.3068 218.348L63.1034 226.932L64.5993 253.318Z" fill="white"/>
<path d="M323.205 139.908C333.785 139.958 343.765 144.823 350.322 153.126L387.879 200.682C394.436 208.984 396.855 219.821 394.452 230.124L380.688 289.138C378.284 299.44 371.321 308.088 361.767 312.633L307.046 338.666C297.493 343.211 286.39 343.159 276.88 338.523L222.408 311.972C212.898 307.337 206.017 298.623 203.712 288.298L190.508 229.156C188.203 218.83 190.725 208.017 197.36 199.777L235.367 152.58C242.002 144.34 252.029 139.57 262.608 139.62L323.205 139.908Z" fill="#3E4095" stroke="#FFC124" stroke-width="2"/>
<path d="M280.073 208.696C280.073 199.987 284.972 194 292.32 194C299.668 194 304.567 199.987 304.567 208.696C301.301 213.323 296.13 215.5 295.042 232.101C309.466 222.848 308.649 217.405 311.099 212.234C314.092 210.601 317.086 209.785 319.807 209.785C324.162 209.785 327.7 211.69 330.149 215.5C333.687 221.759 331.238 228.563 323.345 233.19C320.624 233.19 318.175 232.101 314.637 232.101C311.099 232.101 305.928 233.19 298.307 237C305.928 240.81 311.099 241.899 314.637 241.899C318.175 241.899 320.624 240.81 323.345 240.81C331.238 245.437 333.687 252.24 330.149 258.5C327.972 262.31 324.162 264.215 319.807 264.215C317.086 264.215 314.092 263.399 311.099 261.766C308.649 256.595 309.466 251.152 295.314 241.899C296.13 258.5 301.301 260.677 304.567 265.304C304.567 274.013 299.668 280 292.32 280C284.972 280 280.073 274.013 280.073 265.304C283.339 260.677 288.51 258.5 289.599 241.899C275.175 251.152 275.991 256.595 273.542 261.766C270.548 263.399 267.554 264.215 264.833 264.215C260.478 264.215 256.94 262.31 254.763 258.5C250.953 252.24 253.402 245.437 261.295 240.81C264.016 240.81 266.466 241.899 270.004 241.899C273.542 241.899 278.713 240.81 286.333 237C278.713 233.19 273.542 232.101 270.004 232.101C266.466 232.101 264.016 233.19 261.295 233.19C253.402 228.563 250.953 221.759 254.763 215.5C256.94 211.69 260.478 209.785 264.833 209.785C267.554 209.785 270.548 210.601 273.542 212.234C275.991 217.405 275.175 222.848 289.326 232.101C288.51 215.5 283.339 213.323 280.073 208.696Z" fill="white"/>
<path d="M197.833 31.2165C204.547 31.2484 210.88 34.3356 215.041 39.6043L238.955 69.8851C243.116 75.1539 244.651 82.0306 243.126 88.5687L234.362 126.145C232.837 132.683 228.418 138.171 222.355 141.055L187.512 157.632C181.45 160.516 174.404 160.482 168.369 157.541L133.685 140.634C127.65 137.693 123.283 132.163 121.82 125.611L113.413 87.953C111.95 81.4008 113.551 74.5389 117.761 69.3099L141.962 39.2575C146.172 34.0285 152.535 31.0015 159.249 31.0334L197.833 31.2165Z" fill="#3E4095"/>
<path d="M197.833 31.2165C204.547 31.2484 210.88 34.3356 215.041 39.6043L238.955 69.8851C243.116 75.1539 244.651 82.0306 243.126 88.5687L234.362 126.145C232.837 132.683 228.418 138.171 222.355 141.055L187.512 157.632C181.45 160.516 174.404 160.482 168.369 157.541L133.685 140.634C127.65 137.693 123.283 132.163 121.82 125.611L113.413 87.953C111.95 81.4008 113.551 74.5389 117.761 69.3099L141.962 39.2575C146.172 34.0285 152.535 31.0015 159.249 31.0334L197.833 31.2165Z" stroke="#3D4095" stroke-width="1.42327"/>
<path d="M197.833 31.2165C204.547 31.2484 210.88 34.3356 215.041 39.6043L238.955 69.8851C243.116 75.1539 244.651 82.0306 243.126 88.5687L234.362 126.145C232.837 132.683 228.418 138.171 222.355 141.055L187.512 157.632C181.45 160.516 174.404 160.482 168.369 157.541L133.685 140.634C127.65 137.693 123.283 132.163 121.82 125.611L113.413 87.953C111.95 81.4008 113.551 74.5389 117.761 69.3099L141.962 39.2575C146.172 34.0285 152.535 31.0015 159.249 31.0334L197.833 31.2165Z" stroke="#FFC124" stroke-width="1.42327"/>
<path d="M171.058 112.123C162.568 108.952 159.032 98.3827 163.2 87.2228C167.349 76.1163 176.948 70.4532 185.438 73.6244C193.981 76.8156 197.464 87.3651 193.316 98.4717C189.147 109.632 179.601 115.315 171.058 112.123ZM172.294 108.813C178.221 111.027 185.7 105.667 188.991 96.8561C192.282 88.0457 190.128 79.1489 184.201 76.935C178.328 74.7411 170.869 80.0478 167.579 88.8583C164.288 97.6687 166.421 106.619 172.294 108.813Z" fill="white"/>
<path d="M197.833 312.217C204.547 312.248 210.88 315.336 215.041 320.604L238.955 350.885C243.116 356.154 244.651 363.031 243.126 369.569L234.362 407.145C232.837 413.683 228.418 419.171 222.355 422.055L187.512 438.632C181.45 441.516 174.404 441.482 168.369 438.541L133.685 421.634C127.65 418.693 123.283 413.163 121.82 406.611L113.413 368.953C111.95 362.401 113.551 355.539 117.761 350.31L141.962 320.257C146.172 315.029 152.535 312.002 159.249 312.033L197.833 312.217Z" fill="#FFC124" stroke="#3D4095" stroke-width="1.42327"/>
<path d="M438.597 63.8215C445.293 59.1752 453.739 57.8307 461.547 60.1686L506.638 73.6712C514.445 76.0091 520.763 81.7749 523.803 89.3365L541.36 133.009C544.4 140.571 543.831 149.105 539.815 156.196L516.617 197.152C512.6 204.244 505.573 209.12 497.525 210.401L451.04 217.8C442.992 219.081 434.798 216.627 428.778 211.134L394.011 179.404C387.991 173.91 384.801 165.974 385.343 157.842L388.473 110.877C389.015 102.745 393.231 95.3029 399.926 90.6566L438.597 63.8215Z" fill="#FFC124" stroke="#3D4095" stroke-width="2"/>
<path d="M475.986 170.702L467.185 172.483C463.631 149.672 461.433 136.905 455.859 114.599L453.275 119.462L448.643 120.399L456.932 105.125L462.49 104C466.924 130.201 469.885 144.838 475.986 170.702Z" fill="white"/>
<path d="M542.184 226.635C552.727 226.685 562.674 231.534 569.209 239.808L606.766 287.364C613.301 295.639 615.712 306.439 613.317 316.707L599.552 375.721C597.157 385.989 590.217 394.607 580.696 399.137L525.975 425.17C516.454 429.7 505.388 429.647 495.91 425.027L441.439 398.476C431.961 393.856 425.103 385.172 422.806 374.882L409.602 315.74C407.305 305.45 409.818 294.673 416.431 286.461L454.438 239.264C461.051 231.052 471.043 226.298 481.587 226.348L542.184 226.635Z" fill="#FFC124" stroke="#3D4095" stroke-width="2.23524"/>
<path d="M476.039 333.408C476.947 331.643 478.704 327.036 479.202 325.115C493.574 319.103 520.647 314.535 528.222 294.673C532.088 284.537 528.502 276.719 522.564 274.455C517.342 272.463 510.379 274.733 505.046 283.488L498.027 277.293C505.51 266.895 516.424 264.725 525.126 268.044C535.569 272.026 542.84 283.712 537.295 298.25C529.056 319.853 502.945 319.745 486.164 327.77C492.789 331 498.303 333.455 503.934 335.603C509.053 337.555 514.392 339.239 520.832 341.109L517.669 349.402C509.43 345.791 502.649 342.97 495.687 340.315C489.646 338.011 483.528 335.912 476.039 333.408Z" fill="white"/>
<circle cx="183" cy="278" r="6" fill="#FF385C"/>
<circle cx="417" cy="243" r="8" fill="#FF385C"/>
</svg>
