<svg width="inherit" height="inherit" viewBox="0 0 224 213" fill="none" xmlns="http://www.w3.org/2000/svg">
<g clip-path="url(#clip0_171_4065)">
<path d="M227.119 113.97C227.119 176.683 176.288 227.511 113.578 227.511C50.8716 227.511 0.0371094 176.697 0.0371094 113.97C0.0371094 51.2706 50.861 0.428955 113.578 0.428955C176.27 0.428955 227.119 51.2528 227.119 113.97Z" fill="#336ECE"/>
<path d="M54.109 146.77C33.9929 103.612 33.0887 57.1639 51.2829 18.7615C20.4545 39.0513 0.0795898 73.9256 0.0795898 113.594C0.0795898 176.304 50.8964 227.135 113.62 227.135C114.741 227.135 115.837 226.996 116.943 226.968C90.9158 205.065 68.9842 178.708 54.1232 146.798" fill="#4671D8"/>
<path d="M178.68 158.936C177.95 164.967 172.078 165.85 169.216 169.751C170.436 176.587 164.334 187.658 171.248 188.69C177.812 189.675 179.028 168.854 180.039 160.287C179.141 160.273 179.422 159.095 178.68 158.929M168.837 14.368C165.032 17.2721 158.274 13.2368 154.423 12.6305C150.458 14.2935 146.937 16.4176 142.239 17.3643C141.48 19.3323 142.391 22.2542 142.923 24.7966C147.214 27.4596 153.104 26.3284 159.146 26.1511C157.873 32.9558 158.235 39.2463 153.061 41.0299C146.7 43.2177 138.267 37.2783 131.438 36.9769C128.456 37.6151 129.236 41.9873 126.009 42.3809C120.712 39.1151 113.953 37.3137 109.794 32.9132C111.049 31.1474 110.747 26.4561 109.113 25.4739C97.6133 24.8746 87.4755 31.8424 78.6851 29.534C77.5894 33.4097 74.2527 35.0195 71.9266 37.6506C73.0471 48.5579 60.7214 51.2918 58.3953 59.9616C56.8103 65.8691 59.952 73.3617 57.0479 80.2479C64.1752 86.5845 64.5652 100.555 75.3059 101.889C82.5147 102.782 88.5003 98.9101 96.929 97.8286C100.17 100.382 101.053 103.509 107.081 101.889C110.201 105.559 105.819 115.023 108.439 118.796C113.375 125.923 117.084 130.909 115.871 139.756C115.364 143.454 112.279 146.759 112.492 150.581C112.645 153.493 115.105 156.028 115.871 158.688C118.453 167.758 119.361 178.616 124.651 186.42C125.155 188.48 123.502 188.406 123.977 190.473C127.864 193.477 139.87 191.512 143.593 189.119C151.228 184.247 149.87 172.059 157.111 167.481C158.231 164.081 156.55 161.322 156.451 157.347C158.876 153.457 163.295 151.571 166.585 148.553C169.426 138.862 163.951 132.472 164.568 122.852C172.365 110.147 185.067 102.339 188.896 85.659C184.661 86.7633 180.375 87.665 176.053 88.361C170.301 82.4038 165.94 75.0389 161.188 68.0783C162.291 57.405 151.866 51.3769 153.742 44.4091C155.132 44.6006 154.359 46.9339 155.76 47.1111C158.646 41.2533 160.543 53.3768 161.848 55.9051C162.366 56.9015 164.582 57.4227 165.234 58.6071C166.11 60.2205 165.351 62.2665 165.912 64.0146C167.273 68.33 171.911 70.2377 172.67 74.8368C173.315 78.7586 172.362 80.3543 174.032 82.2726C186.726 77.4005 200.062 73.1596 204.459 59.9616C200.952 58.7312 198.953 56.0008 197.009 53.1995C195.385 55.8554 192.903 57.6426 188.893 57.9298C187.379 52.2279 183.521 48.8912 182.134 43.0511C188.109 40.3668 188.935 48.338 192.96 49.8132H199.048C200.577 53.5045 205.392 53.9229 210.629 53.9158C200.325 37.4307 185.967 23.7293 168.837 14.368Z" fill="#CEC857"/>
<path d="M88.1535 7.8967C86.7813 8.09172 86.8167 9.7264 85.4409 9.92142C81.2071 10.3611 76.8243 7.97825 73.2606 9.92142C73.6826 14.8396 72.7571 18.4175 72.6011 22.7683C77.3278 27.7185 84.6466 26.6192 89.4974 22.1017C89.1038 19.9032 89.9584 18.9458 90.1712 17.3643C95.0007 16.7864 95.639 11.9958 98.2772 9.2477C102.635 9.98525 104.124 7.86124 107.082 7.21942C111.5 12.9532 119.727 14.8538 121.957 22.7683C122.854 19.9741 122.407 16.4779 125.336 17.3643C120.581 14.8645 110.684 8.35767 115.872 2.48205C122.421 7.29034 127.325 16.8076 132.924 21.1762C132.995 21.0096 133.162 20.8535 133.456 20.7401C137.268 23.1088 131.616 23.1371 132.109 26.1476C134.318 25.8888 135.073 24.169 136.836 23.4421C136.96 20.6089 133.51 21.3535 134.119 18.0381C136.609 16.0027 141.644 16.5275 144.257 14.6552C143.969 13.0065 144.008 11.3171 144.372 9.6835C144.736 8.04987 145.419 6.50407 146.381 5.13441C136.019 2.07635 125.272 0.515708 114.468 0.499878C105.337 0.499878 96.5255 1.69131 88.0259 3.71959C88.3131 4.87201 88.4124 6.21592 88.1677 7.8967" fill="#00A650"/>
</g>
<defs>
<clipPath id="clip0_171_4065">
<rect width="226.94" height="226.94" fill="white" transform="translate(0.0722656 0.428955)"/>
</clipPath>
</defs>
</svg>
