<svg width="inherit" height="inherit" viewBox="0 0 203 200" fill="none" xmlns="http://www.w3.org/2000/svg">
<path d="M167.033 16.8524C128.187 16.8524 113.915 56.5491 113.915 56.5491C113.915 56.5491 99.8377 16.8524 60.726 16.8524C31.3303 16.8524 -2.17881 40.1491 10.1965 93.1077C22.5718 146.066 114.021 212.038 114.021 212.038C114.021 212.038 205.134 146.066 217.527 93.1077C229.903 40.1491 198.805 16.8524 167.033 16.8524Z" fill="#F44336"/>
<path d="M54.7336 20.8061C85.2287 20.8061 100.37 53.5882 105.263 66.8677C105.955 68.7648 108.596 68.818 109.394 66.9741L113.862 56.5314C107.568 36.4259 90.2639 16.8524 60.7263 16.8524C48.4928 16.8524 35.5679 20.8947 25.5151 29.4227C34.3977 23.5896 44.805 20.8061 54.7336 20.8061ZM167.033 16.8524C157.654 16.8524 149.109 18.8913 142.442 23.0045C147.123 21.1961 152.921 20.8061 158.665 20.8061C187.405 20.8061 213.13 42.5958 201.518 92.9658C191.553 136.208 133.329 188.671 115.546 208.687C114.412 209.964 114.022 212.021 114.022 212.021C114.022 212.021 205.134 146.048 217.527 93.0899C229.903 40.1491 198.858 16.8524 167.033 16.8524Z" fill="#CC3333"/>
<path d="M30.6041 44.9538C37.2527 36.6563 49.1316 29.7949 59.202 37.7024C64.645 41.9752 62.2693 50.7337 57.3936 54.4214C50.3018 59.8112 44.1318 63.0558 39.8058 71.4951C37.2173 76.5658 35.657 82.1152 34.8592 87.7709C34.5401 90.0049 31.6147 90.5545 30.5154 88.5865C23.0335 75.3247 20.906 57.0631 30.6041 44.9538ZM137.195 62.3998C134.074 62.3998 131.876 59.3857 133.011 56.4781C135.12 51.1237 137.851 45.9466 141.131 41.3369C145.989 34.5287 155.226 30.5573 161.077 34.6883C167.069 38.908 166.289 47.3473 162.087 51.4251C153.063 60.1658 141.68 62.3998 137.195 62.3998Z" fill="#FF8A80"/>
</svg>
