<svg width="inherit" height="inherit" viewBox="0 0 585 285" fill="none" xmlns="http://www.w3.org/2000/svg">
<path d="M92.9568 211.728C92.9568 211.728 100.677 169.61 113.714 144.227C126.75 118.844 169.324 149.739 179.403 112.525C189.483 75.3106 213.701 73.7635 245.092 80.8225C276.484 87.8815 284.915 61.6038 284.915 61.6038" stroke="#BEBFE4" stroke-width="1.40952"/>
<g filter="url(#filter0_dddddd_404_71)">
<g clip-path="url(#clip0_404_71)">
<rect x="5.82397" y="172.597" width="479" height="133" rx="8" transform="rotate(-10.422 5.82397 172.597)" fill="white"/>
<path d="M43.2566 206.069C43.0558 204.679 42.9657 203.89 42.7295 202.506C42.384 200.428 42.1691 199.26 41.7528 197.195C41.4812 195.817 41.2848 195.048 40.9778 193.677L45.0318 192.932C47.6342 192.453 49.5202 192.857 49.8914 194.875C50.2365 196.751 48.7618 197.59 47.0837 198.118L47.0999 198.207C49.1572 198.048 50.9613 198.503 51.4007 200.893C51.8533 203.354 50.391 204.757 47.6824 205.255L43.2566 206.069ZM43.4122 198.555L45.9535 198.143C47.571 197.882 48.8603 196.931 48.5771 195.391C48.3003 193.886 46.8591 193.712 45.2369 194.047L42.7827 194.535C42.9593 195.893 43.1857 197.224 43.4122 198.555ZM44.6383 204.626L47.4838 204.176C49.2043 203.877 50.3082 202.814 49.9762 201.009C49.5985 198.955 47.9501 198.252 46.2394 198.603L43.5261 199.175C43.8615 200.998 44.2145 202.818 44.6383 204.626ZM59.5388 203.075C59.444 202.36 59.3883 201.858 59.2985 201.271C59.034 202.619 57.8751 203.582 56.2642 203.879C54.1575 204.266 52.3782 203.349 52.0136 201.366C51.6457 199.365 52.9822 197.875 55.0889 197.488C56.7353 197.185 58.1853 197.705 58.9042 198.927C58.8312 198.63 58.7661 198.276 58.6312 197.642C58.3024 195.854 57.0481 195.004 55.2955 195.327C54.2864 195.512 53.109 196.077 52.2306 197.172L51.6448 196.474C52.6681 195.371 53.9838 194.763 55.4355 194.496C58.091 194.007 59.463 195 59.836 197.127C60.1127 198.632 60.1243 198.795 60.4155 200.278C60.6332 201.263 60.7728 201.823 61.0082 202.805L59.5388 203.075ZM56.5704 203.255C58.1637 202.962 59.359 201.699 59.0595 200.07C58.76 198.442 57.1903 197.669 55.597 197.962C53.986 198.258 52.9533 199.509 53.2528 201.138C53.5523 202.767 54.9594 203.551 56.5704 203.255ZM62.4639 202.537C62.3347 201.536 62.2659 200.963 62.119 199.965C61.8632 198.475 61.7102 197.643 61.4191 196.159C61.2013 195.174 61.0715 194.667 60.8361 193.686L62.3055 193.415C62.4347 194.417 62.476 194.94 62.6406 195.934C62.6959 196.235 62.727 196.504 62.7726 196.752C63.343 194.579 64.5389 192.822 66.5748 192.447C68.4336 192.105 69.3198 193.242 69.5853 194.785C69.8443 196.293 69.9536 196.987 70.2624 198.468C70.4625 199.456 70.6197 200.012 70.8552 200.994L69.3858 201.264C69.2566 200.263 69.1878 199.69 69.0409 198.692C68.7852 197.202 68.6419 196.423 68.3508 194.939C68.1052 193.703 67.2039 193.082 66.0532 193.294C64.4954 193.58 63.4374 195.092 62.8573 197.212C62.9893 198.03 63.1372 198.735 63.3405 199.741C63.5405 200.729 63.6978 201.285 63.9332 202.267L62.4639 202.537ZM72.37 200.715C72.1497 199.219 72.0321 198.38 71.7973 196.904C71.4048 194.67 71.1769 193.431 70.749 191.204C70.4434 189.741 70.255 188.915 69.9284 187.438L71.3977 187.168C71.6181 188.665 71.718 189.507 71.9705 190.979C72.2425 192.558 72.4234 193.641 72.6755 194.913C73.1896 192.732 74.0379 191.075 75.2594 190.85C76.7996 190.567 77.2922 192.947 74.7478 194.239C75.9982 195.564 76.3191 195.816 77.6371 197.111C78.5098 197.976 79.0388 198.464 79.947 199.322L78.4776 199.592C76.8286 197.791 75.1651 196.01 73.3908 194.323C75.8153 193.475 75.9771 191.469 74.8087 191.683C73.9412 191.843 73.3049 193.259 72.7602 195.373C72.835 195.78 72.9309 196.202 73.0188 196.68C73.3067 198.146 73.5128 198.968 73.8394 200.445L72.37 200.715ZM84.8867 198.414C84.6859 197.023 84.5958 196.234 84.3595 194.85C84.014 192.773 83.7992 191.604 83.3829 189.539C83.1112 188.162 82.9149 187.393 82.6078 186.022L85.0686 185.569C87.454 189.285 90.0066 192.915 92.5705 196.507C92.4218 195.399 92.3172 194.631 92.1135 193.424C91.768 191.347 91.5531 190.178 91.1368 188.113C90.8652 186.736 90.6689 185.967 90.3618 184.596L92.0082 184.293C92.209 185.683 92.2992 186.472 92.5354 187.856C92.8809 189.934 93.0958 191.102 93.5121 193.167C93.7837 194.545 93.98 195.314 94.2871 196.685L91.8972 197.125C89.4908 193.394 86.9172 189.75 84.3179 186.165C84.4699 187.29 84.5568 188.061 84.7637 189.285C85.1269 191.36 85.3418 192.528 85.7404 194.596C86.0297 195.971 86.2261 196.74 86.5331 198.111L84.8867 198.414ZM102.172 195.235C102.077 194.52 102.021 194.018 101.931 193.431C101.667 194.779 100.508 195.742 98.8969 196.039C96.7903 196.426 95.011 195.509 94.6464 193.526C94.2785 191.526 95.615 190.035 97.7217 189.648C99.3681 189.345 100.818 189.865 101.537 191.087C101.464 190.79 101.399 190.436 101.264 189.802C100.935 188.014 99.6809 187.165 97.9283 187.487C96.9192 187.672 95.7418 188.237 94.8634 189.332L94.2775 188.634C95.3009 187.531 96.6166 186.923 98.0683 186.656C100.724 186.167 102.096 187.16 102.469 189.287C102.746 190.792 102.757 190.955 103.048 192.438C103.266 193.423 103.406 193.983 103.641 194.965L102.172 195.235ZM99.2032 195.415C100.796 195.122 101.992 193.859 101.692 192.23C101.393 190.602 99.8231 189.829 98.2298 190.122C96.6188 190.418 95.5861 191.669 95.8856 193.298C96.1851 194.927 97.5922 195.711 99.2032 195.415ZM105.097 194.697C104.967 193.696 104.899 193.123 104.752 192.125C104.496 190.635 104.343 189.803 104.052 188.319C103.834 187.334 103.704 186.827 103.469 185.846L104.938 185.575C105.067 186.577 105.109 187.1 105.273 188.094C105.306 188.271 105.335 188.431 105.347 188.593C105.61 186.641 106.322 185.138 107.88 184.851C109.385 184.575 110.253 185.714 110.519 187.258C110.551 187.435 110.577 187.577 110.6 187.7C110.839 185.717 111.562 184.174 113.138 183.885C114.625 183.611 115.511 184.748 115.776 186.291C116.035 187.799 116.145 188.493 116.454 189.973C116.654 190.961 116.811 191.518 117.046 192.5L115.577 192.77C115.448 191.769 115.379 191.196 115.232 190.198C114.976 188.708 114.851 187.925 114.542 186.445C114.296 185.209 113.501 184.568 112.581 184.737C111.465 184.942 110.929 186.304 110.714 188.32C110.856 189.191 110.976 189.846 111.196 190.94C111.413 191.925 111.553 192.485 111.788 193.467L110.319 193.737C110.19 192.736 110.139 192.159 109.974 191.165C109.736 189.671 109.593 188.892 109.302 187.408C109.056 186.173 108.243 185.535 107.323 185.704C106.225 185.906 105.685 187.25 105.461 189.213C105.606 190.101 105.757 190.824 105.973 191.901C106.173 192.889 106.331 193.445 106.566 194.427L105.097 194.697ZM122.208 191.734C119.854 192.166 117.803 190.768 117.272 187.883C116.742 184.997 118.161 182.961 120.551 182.521C122.179 182.222 124.346 182.757 125.122 185.286L118.395 187.42C118.408 187.491 118.424 187.579 118.441 187.668C118.867 189.987 120.423 191.183 122.052 190.884C123.468 190.623 124.398 189.409 124.401 187.633L125.594 187.652C125.542 189.858 124.226 191.362 122.208 191.734ZM118.361 187.134L123.883 185.313C123.096 183.426 121.822 183.166 120.813 183.352C119.202 183.648 118.184 185.08 118.361 187.134Z" fill="#647D7E"/>
<path d="M138.539 188.547C136.655 184.574 134.604 180.687 132.489 176.849L134.153 176.543C135.455 179.341 136.81 182.13 138.246 184.868C138.757 185.853 139.142 186.551 139.644 187.392C140.208 183.39 140.599 179.347 140.881 175.305L142.545 174.999C142.111 178.117 141.699 181.249 141.399 184.398C141.246 185.853 141.171 186.636 141.07 188.082L138.539 188.547ZM144.479 177.371C143.965 177.465 143.562 177.265 143.478 176.804C143.396 176.362 143.702 176.031 144.215 175.937C144.728 175.842 145.114 176.046 145.195 176.489C145.28 176.949 144.992 177.276 144.479 177.371ZM145.511 187.265C145.382 186.264 145.313 185.691 145.166 184.693C144.911 183.203 144.758 182.371 144.466 180.887C144.249 179.902 144.119 179.395 143.884 178.414L145.353 178.143C145.482 179.144 145.523 179.668 145.688 180.662C145.926 182.156 146.079 182.988 146.388 184.468C146.588 185.457 146.745 186.013 146.981 186.995L145.511 187.265ZM148.638 186.69C148.509 185.689 148.44 185.116 148.293 184.118C148.037 182.628 147.884 181.796 147.593 180.312C147.375 179.327 147.246 178.82 147.01 177.839L148.48 177.568C148.609 178.57 148.65 179.093 148.815 180.087C148.854 180.3 148.893 180.512 148.911 180.71C149.267 178.668 150.04 177.098 151.669 176.799C152.731 176.603 153.762 177.036 154.026 178.47C154.169 179.249 154.013 179.992 153.597 180.617L152.424 180.705C152.846 179.913 152.962 179.251 152.837 178.67C152.661 177.715 151.926 177.502 151.271 177.622C150.032 177.85 149.368 179.217 149.005 181.224C149.15 182.112 149.302 182.835 149.515 183.893C149.715 184.882 149.872 185.438 150.107 186.42L148.638 186.69ZM157.017 185.149C156.836 183.865 156.759 183.147 156.548 181.905C156.236 180.004 156.04 178.942 155.656 177.054C155.624 176.877 155.595 176.717 155.565 176.558C155.123 176.64 154.878 176.703 154.439 176.802L154.367 176.412C154.795 176.352 155.064 176.321 155.489 176.243C155.325 175.449 155.169 174.801 154.94 173.855L156.427 173.581C156.568 174.544 156.635 175.208 156.746 176.012C157.33 175.904 157.911 175.779 158.492 175.654L158.564 176.043C157.976 176.133 157.389 176.223 156.805 176.33C156.834 176.49 156.863 176.649 156.896 176.826C157.209 178.727 157.404 179.789 157.788 181.677C158.033 182.913 158.217 183.611 158.504 184.876L157.017 185.149ZM168.145 183.103C168.016 182.102 167.947 181.529 167.8 180.531C167.754 180.283 167.712 180.053 167.673 179.84C167.096 181.978 165.911 183.697 163.911 184.065C162.034 184.41 161.163 183.252 160.897 181.709C160.641 180.218 160.514 179.528 160.223 178.044C160.002 177.042 159.866 176.499 159.631 175.518L161.1 175.248C161.229 176.249 161.277 176.807 161.445 177.82C161.683 179.313 161.844 180.089 162.135 181.573C162.381 182.809 163.282 183.43 164.433 183.218C165.955 182.938 167.019 181.461 167.606 179.377C167.447 178.509 167.313 177.784 167.1 176.725C166.882 175.74 166.753 175.233 166.517 174.251L167.986 173.981C168.116 174.982 168.157 175.505 168.322 176.5C168.56 177.994 168.713 178.826 169.022 180.306C169.222 181.294 169.379 181.851 169.614 182.833L168.145 183.103ZM177.627 181.359C177.532 180.645 177.476 180.142 177.387 179.555C177.122 180.903 175.963 181.866 174.352 182.163C172.246 182.55 170.466 181.633 170.102 179.65C169.734 177.65 171.07 176.159 173.177 175.772C174.823 175.469 176.273 175.989 176.992 177.212C176.919 176.914 176.854 176.56 176.719 175.926C176.391 174.138 175.136 173.289 173.384 173.611C172.375 173.796 171.197 174.361 170.319 175.456L169.733 174.758C170.756 173.655 172.072 173.047 173.524 172.78C176.179 172.292 177.551 173.284 177.924 175.411C178.201 176.916 178.212 177.079 178.504 178.563C178.721 179.547 178.861 180.107 179.096 181.089L177.627 181.359ZM174.659 181.539C176.252 181.246 177.447 179.983 177.148 178.354C176.848 176.726 175.278 175.953 173.685 176.246C172.074 176.542 171.041 177.793 171.341 179.422C171.64 181.051 173.048 181.835 174.659 181.539ZM180.552 180.821C180.332 179.324 180.214 178.486 179.979 177.01C179.587 174.776 179.359 173.537 178.931 171.31C178.625 169.847 178.437 169.021 178.11 167.544L179.58 167.274C179.8 168.771 179.9 169.612 180.153 171.085C180.527 173.322 180.755 174.561 181.201 176.785C181.489 178.252 181.695 179.074 182.021 180.551L180.552 180.821ZM186.944 179.646C187.552 175.288 188.089 170.943 188.436 166.56L190.967 166.095C191.575 167.41 191.925 168.115 192.582 169.403C193.982 172.239 195.464 175.023 196.999 177.797L195.335 178.103C194.782 176.887 194.475 176.211 193.92 175.087L188.861 176.036C188.757 177.263 188.692 178.007 188.608 179.34L186.944 179.646ZM188.948 175.214L193.544 174.333C192.723 172.653 192.178 171.582 191.242 169.778C190.731 168.792 190.347 168.094 189.844 167.253C189.489 169.899 189.19 172.553 188.948 175.214ZM201.173 177.212C198.819 177.645 196.768 176.247 196.237 173.361C195.707 170.476 197.126 168.44 199.48 168.007C201.215 167.688 202.759 168.319 203.668 169.78L202.663 170.386C201.951 169.199 200.84 168.635 199.636 168.856C198.008 169.156 196.976 170.81 197.406 173.147C197.832 175.466 199.388 176.662 201.017 176.362C202.433 176.102 203.363 174.888 203.366 173.112L204.559 173.131C204.507 175.336 203.191 176.841 201.173 177.212ZM209.886 175.61C207.532 176.043 205.481 174.645 204.95 171.759C204.42 168.873 205.839 166.837 208.193 166.404C209.928 166.085 211.472 166.716 212.381 168.178L211.376 168.784C210.664 167.597 209.554 167.033 208.35 167.254C206.721 167.554 205.689 169.207 206.119 171.544C206.545 173.863 208.101 175.06 209.73 174.76C211.146 174.5 212.076 173.286 212.079 171.51L213.272 171.528C213.22 173.734 211.904 175.239 209.886 175.61ZM218.67 173.995C216.263 174.437 214.194 173.042 213.664 170.157C213.133 167.271 214.57 165.232 216.978 164.789C219.403 164.343 221.489 165.735 222.02 168.62C222.55 171.506 221.096 173.549 218.67 173.995ZM218.514 173.145C220.196 172.836 221.207 171.167 220.78 168.848C220.351 166.511 218.816 165.329 217.134 165.639C215.487 165.941 214.456 167.595 214.885 169.932C215.312 172.251 216.868 173.448 218.514 173.145ZM230.763 171.588C230.634 170.587 230.565 170.014 230.418 169.016C230.372 168.768 230.33 168.538 230.291 168.325C229.714 170.463 228.529 172.182 226.529 172.549C224.652 172.894 223.781 171.737 223.515 170.194C223.259 168.703 223.132 168.013 222.841 166.529C222.62 165.526 222.484 164.984 222.249 164.003L223.718 163.732C223.847 164.734 223.895 165.292 224.063 166.304C224.301 167.798 224.462 168.574 224.753 170.057C224.999 171.293 225.9 171.915 227.05 171.703C228.573 171.423 229.637 169.946 230.224 167.862C230.065 166.994 229.931 166.268 229.718 165.21C229.5 164.225 229.371 163.718 229.135 162.736L230.604 162.466C230.734 163.467 230.775 163.99 230.94 164.985C231.178 166.478 231.331 167.311 231.64 168.791C231.84 169.779 231.997 170.336 232.232 171.318L230.763 171.588ZM233.748 171.039C233.619 170.038 233.55 169.465 233.403 168.467C233.147 166.976 232.994 166.144 232.703 164.661C232.485 163.676 232.356 163.169 232.12 162.187L233.59 161.917C233.719 162.918 233.76 163.441 233.925 164.436C233.98 164.737 234.011 165.006 234.057 165.254C234.627 163.081 235.823 161.323 237.859 160.949C239.718 160.607 240.604 161.744 240.869 163.287C241.128 164.795 241.238 165.489 241.546 166.969C241.747 167.957 241.904 168.514 242.139 169.496L240.67 169.766C240.541 168.765 240.472 168.192 240.325 167.194C240.069 165.704 239.926 164.925 239.635 163.441C239.389 162.205 238.488 161.584 237.337 161.795C235.779 162.082 234.721 163.594 234.141 165.714C234.273 166.531 234.421 167.236 234.625 168.242C234.825 169.23 234.982 169.787 235.217 170.769L233.748 171.039ZM244.15 169.126C243.968 167.842 243.891 167.124 243.681 165.881C243.368 163.98 243.173 162.918 242.789 161.031C242.757 160.854 242.727 160.694 242.698 160.535C242.255 160.616 242.011 160.68 241.572 160.779L241.5 160.389C241.928 160.329 242.197 160.298 242.622 160.219C242.458 159.426 242.302 158.778 242.073 157.831L243.56 157.558C243.7 158.52 243.768 159.185 243.879 159.988C244.463 159.881 245.044 159.756 245.625 159.631L245.696 160.02C245.109 160.11 244.521 160.2 243.937 160.307C243.967 160.466 243.996 160.626 244.028 160.803C244.341 162.703 244.537 163.766 244.92 165.653C245.166 166.889 245.349 167.588 245.637 168.853L244.15 169.126Z" fill="#647D7E"/>
<path d="M60.787 257.751L56.6759 258.507C55.2102 247.86 54.293 241.9 51.8832 231.472L50.6402 233.714L48.4765 234.112L52.4608 227.071L55.0572 226.593C56.904 238.825 58.1613 245.662 60.787 257.751ZM82.1363 253.959C75.2557 255.224 68.7233 249.626 67.0601 240.581C65.4049 231.58 69.518 224.024 76.3986 222.758C83.3225 221.485 89.8116 227.092 91.4669 236.093C93.1301 245.137 89.0602 252.686 82.1363 253.959ZM81.6429 251.276C86.4464 250.393 89.2747 243.878 87.9616 236.738C86.6486 229.597 81.6955 224.558 76.892 225.441C72.1318 226.317 69.2956 232.788 70.6086 239.929C71.9217 247.069 76.8827 252.152 81.6429 251.276ZM102.189 220.342C101.935 218.957 102.539 217.862 103.707 217.647C104.876 217.432 105.83 218.241 106.084 219.626C105.7 220.457 104.942 220.954 105.254 223.626C107.277 221.733 106.988 220.891 107.226 219.997C107.654 219.65 108.107 219.433 108.539 219.353C109.232 219.226 109.85 219.425 110.351 219.959C111.097 220.851 110.906 222.005 109.786 222.971C109.354 223.051 108.932 222.949 108.37 223.053C107.807 223.156 107.017 223.481 105.916 224.309C107.24 224.692 108.094 224.714 108.656 224.611C109.219 224.507 109.576 224.263 110.009 224.183C111.399 224.688 111.988 225.698 111.608 226.797C111.373 227.466 110.823 227.881 110.131 228.008C109.698 228.088 109.198 228.045 108.675 227.873C108.134 227.123 108.105 226.233 105.584 225.176C106.199 227.792 107.085 227.987 107.739 228.627C107.994 230.012 107.39 231.107 106.222 231.322C105.053 231.537 104.099 230.728 103.845 229.343C104.229 228.512 104.987 228.014 104.675 225.343C102.652 227.236 102.941 228.078 102.703 228.971C102.274 229.319 101.822 229.536 101.39 229.615C100.697 229.743 100.079 229.543 99.6213 229.001C98.8324 228.117 99.0229 226.964 100.143 225.997C100.575 225.918 100.997 226.019 101.559 225.916C102.122 225.812 102.912 225.488 104.012 224.659C102.689 224.276 101.835 224.254 101.273 224.358C100.71 224.461 100.353 224.706 99.9198 224.786C98.5295 224.281 97.9411 223.271 98.3639 222.164C98.5987 221.494 99.1056 221.088 99.7979 220.961C100.231 220.881 100.731 220.923 101.254 221.095C101.795 221.846 101.824 222.735 104.345 223.793C103.73 221.177 102.844 220.982 102.189 220.342ZM123.154 216.487C122.899 215.102 123.503 214.007 124.672 213.792C125.84 213.577 126.794 214.386 127.049 215.77C126.665 216.602 125.906 217.099 126.218 219.771C128.241 217.877 127.952 217.036 128.191 216.142C128.619 215.795 129.071 215.577 129.504 215.498C130.196 215.371 130.814 215.57 131.315 216.104C132.061 216.996 131.87 218.15 130.751 219.116C130.318 219.196 129.897 219.094 129.334 219.198C128.772 219.301 127.981 219.625 126.881 220.454C128.204 220.837 129.058 220.859 129.621 220.755C130.183 220.652 130.541 220.407 130.974 220.328C132.364 220.833 132.952 221.843 132.573 222.942C132.338 223.611 131.788 224.025 131.095 224.153C130.663 224.232 130.163 224.19 129.639 224.018C129.098 223.267 129.069 222.378 126.548 221.32C127.163 223.936 128.049 224.131 128.704 224.771C128.958 226.156 128.355 227.252 127.186 227.466C126.018 227.681 125.064 226.872 124.809 225.488C125.193 224.657 125.952 224.159 125.639 221.488C123.616 223.381 123.905 224.222 123.667 225.116C123.239 225.463 122.787 225.681 122.354 225.76C121.662 225.888 121.043 225.688 120.586 225.146C119.797 224.262 119.987 223.109 121.107 222.142C121.54 222.063 121.961 222.164 122.524 222.061C123.086 221.957 123.877 221.633 124.977 220.804C123.654 220.421 122.8 220.399 122.237 220.503C121.675 220.606 121.317 220.851 120.884 220.93C119.494 220.426 118.906 219.415 119.328 218.309C119.563 217.639 120.07 217.233 120.762 217.105C121.195 217.026 121.695 217.068 122.219 217.24C122.759 217.991 122.789 218.88 125.31 219.938C124.694 217.322 123.808 217.127 123.154 216.487ZM144.118 212.631C143.864 211.247 144.467 210.151 145.636 209.936C146.804 209.722 147.758 210.53 148.013 211.915C147.629 212.746 146.87 213.244 147.183 215.915C149.206 214.022 148.917 213.181 149.155 212.287C149.583 211.94 150.035 211.722 150.468 211.643C151.161 211.515 151.779 211.715 152.28 212.249C153.025 213.141 152.835 214.294 151.715 215.261C151.282 215.34 150.861 215.239 150.299 215.342C149.736 215.446 148.946 215.77 147.845 216.599C149.168 216.982 150.022 217.004 150.585 216.9C151.148 216.797 151.505 216.552 151.938 216.472C153.328 216.977 153.917 217.988 153.537 219.086C153.302 219.756 152.752 220.17 152.06 220.297C151.627 220.377 151.127 220.335 150.603 220.163C150.063 219.412 150.033 218.523 147.513 217.465C148.128 220.081 149.014 220.276 149.668 220.916C149.923 222.301 149.319 223.396 148.151 223.611C146.982 223.826 146.028 223.017 145.774 221.632C146.158 220.801 146.916 220.304 146.604 217.632C144.581 219.525 144.87 220.367 144.632 221.261C144.203 221.608 143.751 221.825 143.318 221.905C142.626 222.032 142.008 221.833 141.55 221.291C140.761 220.407 140.952 219.253 142.071 218.287C142.504 218.207 142.925 218.309 143.488 218.205C144.051 218.102 144.841 217.778 145.941 216.949C144.618 216.566 143.764 216.544 143.202 216.647C142.639 216.751 142.281 216.996 141.849 217.075C140.458 216.57 139.87 215.56 140.293 214.453C140.528 213.784 141.034 213.377 141.727 213.25C142.159 213.171 142.659 213.213 143.183 213.385C143.724 214.136 143.753 215.025 146.274 216.082C145.659 213.467 144.773 213.272 144.118 212.631ZM165.083 208.776C164.828 207.391 165.432 206.296 166.6 206.081C167.769 205.866 168.723 206.675 168.977 208.06C168.593 208.891 167.835 209.388 168.147 212.06C170.17 210.167 169.881 209.325 170.119 208.431C170.548 208.084 171 207.867 171.433 207.787C172.125 207.66 172.743 207.859 173.244 208.394C173.99 209.286 173.799 210.439 172.68 211.405C172.247 211.485 171.825 211.384 171.263 211.487C170.7 211.591 169.91 211.915 168.81 212.743C170.133 213.126 170.987 213.148 171.549 213.045C172.112 212.941 172.47 212.697 172.902 212.617C174.293 213.122 174.881 214.132 174.501 215.231C174.267 215.901 173.717 216.315 173.024 216.442C172.591 216.522 172.092 216.48 171.568 216.307C171.027 215.557 170.998 214.667 168.477 213.61C169.092 216.226 169.978 216.421 170.633 217.061C170.887 218.446 170.283 219.541 169.115 219.756C167.947 219.971 166.993 219.162 166.738 217.777C167.122 216.946 167.881 216.449 167.568 213.777C165.545 215.67 165.834 216.512 165.596 217.406C165.168 217.753 164.715 217.97 164.283 218.05C163.59 218.177 162.972 217.978 162.514 217.435C161.726 216.552 161.916 215.398 163.036 214.432C163.469 214.352 163.89 214.453 164.452 214.35C165.015 214.247 165.805 213.922 166.906 213.094C165.583 212.711 164.728 212.689 164.166 212.792C163.603 212.896 163.246 213.14 162.813 213.22C161.423 212.715 160.834 211.705 161.257 210.598C161.492 209.929 161.999 209.522 162.691 209.395C163.124 209.315 163.624 209.358 164.148 209.53C164.688 210.28 164.718 211.17 167.238 212.227C166.623 209.611 165.737 209.416 165.083 208.776ZM186.047 204.921C185.792 203.536 186.396 202.441 187.565 202.226C188.733 202.011 189.687 202.82 189.942 204.205C189.558 205.036 188.799 205.533 189.112 208.205C191.135 206.312 190.846 205.47 191.084 204.576C191.512 204.229 191.964 204.012 192.397 203.932C193.089 203.805 193.708 204.004 194.209 204.538C194.954 205.43 194.764 206.584 193.644 207.55C193.211 207.63 192.79 207.528 192.227 207.632C191.665 207.735 190.874 208.06 189.774 208.888C191.097 209.271 191.951 209.293 192.514 209.19C193.076 209.086 193.434 208.842 193.867 208.762C195.257 209.267 195.845 210.277 195.466 211.376C195.231 212.045 194.681 212.46 193.989 212.587C193.556 212.667 193.056 212.624 192.532 212.452C191.992 211.702 191.962 210.812 189.441 209.755C190.057 212.371 190.942 212.566 191.597 213.206C191.852 214.59 191.248 215.686 190.079 215.901C188.911 216.116 187.957 215.307 187.702 213.922C188.086 213.091 188.845 212.593 188.533 209.922C186.51 211.815 186.799 212.657 186.56 213.55C186.132 213.898 185.68 214.115 185.247 214.194C184.555 214.322 183.936 214.122 183.479 213.58C182.69 212.696 182.881 211.543 184 210.576C184.433 210.497 184.854 210.598 185.417 210.495C185.979 210.391 186.77 210.067 187.87 209.238C186.547 208.855 185.693 208.833 185.13 208.937C184.568 209.04 184.21 209.285 183.777 209.365C182.387 208.86 181.799 207.85 182.222 206.743C182.456 206.073 182.963 205.667 183.656 205.54C184.088 205.46 184.588 205.502 185.112 205.674C185.653 206.425 185.682 207.314 188.203 208.372C187.588 205.756 186.702 205.561 186.047 204.921ZM207.011 201.066C206.757 199.681 207.361 198.586 208.529 198.371C209.698 198.156 210.652 198.965 210.906 200.349C210.522 201.181 209.764 201.678 210.076 204.35C212.099 202.456 211.81 201.615 212.048 200.721C212.476 200.374 212.929 200.156 213.361 200.077C214.054 199.95 214.672 200.149 215.173 200.683C215.919 201.575 215.728 202.729 214.608 203.695C214.176 203.775 213.754 203.673 213.192 203.777C212.629 203.88 211.839 204.204 210.739 205.033C212.062 205.416 212.916 205.438 213.478 205.334C214.041 205.231 214.398 204.986 214.831 204.907C216.221 205.412 216.81 206.422 216.43 207.521C216.196 208.19 215.645 208.604 214.953 208.732C214.52 208.811 214.02 208.769 213.497 208.597C212.956 207.846 212.927 206.957 210.406 205.899C211.021 208.515 211.907 208.71 212.561 209.35C212.816 210.735 212.212 211.831 211.044 212.045C209.875 212.26 208.921 211.451 208.667 210.067C209.051 209.236 209.809 208.738 209.497 206.067C207.474 207.96 207.763 208.801 207.525 209.695C207.096 210.042 206.644 210.26 206.212 210.339C205.519 210.467 204.901 210.267 204.443 209.725C203.654 208.841 203.845 207.688 204.965 206.721C205.397 206.642 205.819 206.743 206.381 206.64C206.944 206.536 207.734 206.212 208.834 205.383C207.511 205 206.657 204.978 206.095 205.082C205.532 205.185 205.175 205.43 204.742 205.509C203.352 205.005 202.763 203.994 203.186 202.888C203.421 202.218 203.928 201.812 204.62 201.684C205.053 201.605 205.553 201.647 206.076 201.819C206.617 202.57 206.646 203.459 209.167 204.517C208.552 201.901 207.666 201.706 207.011 201.066ZM238.6 225.544C232.671 226.634 228.758 224.088 227.906 219.458C227.222 215.736 228.792 211.868 232.491 209.354C228.975 208.48 226.609 206.32 225.98 202.901C225.184 198.574 227.688 195.161 232.795 194.222C237.944 193.275 241.369 195.597 242.165 199.925C242.794 203.344 241.481 206.18 238.506 208.248C242.77 209.298 245.484 212.378 246.168 216.1C247.02 220.73 244.485 224.462 238.6 225.544ZM235.262 207.637C237.9 206.167 239.406 203.653 238.873 200.754C238.339 197.855 235.966 195.652 233.153 196.169C230.383 196.678 228.862 199.597 229.395 202.497C229.929 205.396 232.317 207.194 235.262 207.637ZM238.289 223.856C241.492 223.268 243.103 220.108 242.442 216.516C241.806 213.054 239.289 210.072 235.735 209.965C232.495 211.322 230.944 215.052 231.588 218.557C232.241 222.106 235.044 224.453 238.289 223.856ZM265.903 220.523C259.974 221.613 256.061 219.067 255.21 214.437C254.526 210.715 256.096 206.847 259.794 204.333C256.278 203.459 253.912 201.299 253.284 197.88C252.488 193.553 254.992 190.14 260.098 189.201C265.248 188.254 268.672 190.576 269.468 194.904C270.097 198.323 268.784 201.159 265.809 203.227C270.074 204.277 272.787 207.357 273.472 211.079C274.323 215.709 271.788 219.441 265.903 220.523ZM262.565 202.616C265.203 201.146 266.709 198.632 266.176 195.733C265.643 192.834 263.269 190.631 260.456 191.148C257.687 191.657 256.166 194.576 256.699 197.476C257.232 200.375 259.621 202.173 262.565 202.616ZM265.593 218.836C268.795 218.247 270.406 215.087 269.746 211.495C269.109 208.033 266.592 205.051 263.038 204.944C259.798 206.301 258.247 210.031 258.892 213.536C259.544 217.085 262.347 219.432 265.593 218.836ZM287.152 200.823L286.889 199.395C291.779 198.496 294.729 197.506 293.707 192.191C292.891 188.002 289.897 186.315 287.257 186.801C284.618 187.286 282.368 189.892 282.998 194.295L279.839 194.876C278.709 188.731 282.582 184.976 287.04 184.157C291.41 183.353 296.365 185.484 297.392 191.066C298.164 195.264 296.177 197.598 293.386 198.961C296.496 199.329 299.19 200.846 299.962 205.044C300.997 210.67 297.175 214.459 292.805 215.263C288.347 216.083 283.333 213.873 282.171 207.555L285.33 206.974C286.296 211.494 289.376 213.164 292.016 212.679C294.699 212.186 296.933 209.493 296.153 205.252C295.174 199.93 292.042 199.924 287.152 200.823ZM320.332 210.156C315.009 211.135 309.894 207.647 307.945 197.536C305.738 186.266 310.023 179.885 315.302 178.915C318.072 178.405 321.163 179.403 323.695 181.979L322.436 184.134C320.689 182.174 318.467 181.285 316.477 181.651C313.188 182.256 310.46 186.158 311.236 194.023C312.701 192.501 314.58 191.529 316.57 191.163C321.374 190.28 326.649 192.934 327.752 199.173C328.763 205.161 325.049 209.289 320.332 210.156ZM311.4 195.648C311.448 195.908 311.496 196.168 311.552 196.47C312.794 203.713 315.922 209.043 319.86 208.319C322.932 207.754 324.951 203.893 324.08 199.401C323.201 194.865 319.808 192.223 316.129 192.9C314.528 193.194 312.901 194.075 311.4 195.648Z" fill="#1F1F1F"/>
</g>
<rect x="6.40617" y="172.998" width="478" height="132" rx="7.5" transform="rotate(-10.422 6.40617 172.998)" stroke="#BEBFE4"/>
</g>
<g filter="url(#filter1_dddddd_404_71)">
<g clip-path="url(#clip1_404_71)">
<rect x="255.496" width="479" height="133" rx="8" transform="rotate(9.13392 255.496 0)" fill="white"/>
<path d="M279.212 46.3525C279.488 44.9748 279.667 44.2015 279.908 42.8181C280.278 40.7445 280.466 39.5716 280.765 37.4866C280.97 36.0975 281.043 35.307 281.212 33.9122L285.282 34.5666C287.894 34.9866 289.537 35.9981 289.211 38.0241C288.908 39.9079 287.238 40.2045 285.48 40.1406L285.465 40.2295C287.457 40.7685 289.005 41.8013 288.619 44.2005C288.222 46.6707 286.374 47.504 283.655 47.0668L279.212 46.3525ZM281.874 39.3238L284.406 39.7858C286.018 40.0813 287.551 39.6168 287.8 38.0707C288.043 36.5601 286.743 35.9135 285.102 35.6862L282.626 35.3246C282.338 36.6638 282.106 37.9938 281.874 39.3238ZM280.997 45.4545L283.829 45.9827C285.55 46.2777 286.946 45.6453 287.238 43.8325C287.569 41.771 286.251 40.5564 284.522 40.3148L281.774 39.9458C281.479 41.7763 281.203 43.6097 280.997 45.4545ZM295.557 48.9805C295.707 48.2753 295.823 47.7834 295.935 47.1998C295.234 48.3816 293.82 48.9017 292.203 48.6416C290.088 48.3016 288.718 46.8417 289.038 44.8513C289.361 42.843 291.119 41.886 293.234 42.226C294.887 42.4918 296.079 43.4674 296.348 44.8597C296.378 44.5547 296.436 44.1993 296.521 43.5566C296.809 41.7617 295.912 40.5417 294.152 40.2588C293.139 40.0959 291.841 40.2336 290.647 40.9714L290.328 40.118C291.662 39.4208 293.105 39.2883 294.562 39.5226C297.228 39.9512 298.189 41.3454 297.828 43.4751C297.585 44.9857 297.542 45.1428 297.32 46.6385C297.195 47.6394 297.139 48.2139 297.033 49.2176L295.557 48.9805ZM292.7 48.1564C294.299 48.4136 295.849 47.6235 296.111 45.9885C296.374 44.3535 295.154 43.0998 293.554 42.8427C291.937 42.5827 290.545 43.4163 290.282 45.0513C290.019 46.6863 291.083 47.8964 292.7 48.1564ZM298.494 49.4526C298.707 48.466 298.834 47.903 299.03 46.9135C299.287 45.4235 299.422 44.5882 299.644 43.0925C299.768 42.0916 299.816 41.5705 299.922 40.5667L301.398 40.8039C301.184 41.7905 301.048 42.2973 300.87 43.2897C300.822 43.5918 300.761 43.8555 300.721 44.1043C301.986 42.2476 303.701 40.9919 305.745 41.3205C307.611 41.6205 308.065 42.988 307.799 44.5313C307.538 46.0391 307.409 46.7293 307.205 48.2279C307.062 49.2259 307.024 49.8032 306.918 50.807L305.443 50.5698C305.656 49.5832 305.783 49.0202 305.978 48.0307C306.236 46.5407 306.362 45.7588 306.584 44.2631C306.766 43.0162 306.125 42.1291 304.97 41.9434C303.406 41.692 301.903 42.763 300.647 44.5664C300.498 45.381 300.401 46.0948 300.256 47.1106C300.114 48.1087 300.076 48.686 299.969 49.6898L298.494 49.4526ZM308.438 51.0515C308.732 49.5672 308.902 48.7377 309.174 47.2683C309.552 45.032 309.752 43.7879 310.094 41.5458C310.296 40.0651 310.395 39.2241 310.581 37.7227L312.056 37.9598C311.763 39.4441 311.575 40.2708 311.321 41.743C311.048 43.3218 310.856 44.403 310.668 45.6855C311.883 43.8024 313.237 42.5251 314.463 42.7222C316.009 42.9708 315.677 45.3786 312.847 45.744C313.581 47.4118 313.799 47.7567 314.608 49.4181C315.141 50.5248 315.476 51.1621 316.045 52.2744L314.57 52.0373C313.619 49.7878 312.647 47.5532 311.54 45.3698C314.108 45.3817 314.932 43.5452 313.759 43.3566C312.889 43.2166 311.815 44.3384 310.594 46.1475C310.528 46.5563 310.478 46.9857 310.4 47.4655C310.181 48.9434 310.1 49.7873 309.913 51.2887L308.438 51.0515ZM321.004 53.0717C321.28 51.6941 321.459 50.9207 321.699 49.5374C322.069 47.4638 322.258 46.2909 322.557 44.2059C322.762 42.8168 322.834 42.0263 323.004 40.6315L325.474 41.0287C326.478 45.3286 327.669 49.6038 328.883 53.8463C329.113 52.753 329.271 51.9945 329.483 50.7889C329.853 48.7153 330.042 47.5424 330.341 45.4574C330.546 44.0683 330.618 43.2778 330.788 41.883L332.441 42.1488C332.164 43.5264 331.985 44.2998 331.745 45.6831C331.375 47.7567 331.186 48.9296 330.887 51.0146C330.682 52.4037 330.61 53.1942 330.44 54.589L328.041 54.2033C327.022 49.8827 325.817 45.5869 324.567 41.3387C324.334 42.4497 324.158 43.2053 323.943 44.4287C323.591 46.5052 323.402 47.6781 323.086 49.7603C322.898 51.1522 322.826 51.9427 322.656 53.3375L321.004 53.0717ZM338.355 55.8616C338.505 55.1564 338.621 54.6646 338.733 54.0809C338.032 55.2627 336.618 55.7828 335.001 55.5228C332.886 55.1827 331.516 53.7228 331.836 51.7324C332.159 49.7242 333.917 48.7671 336.032 49.1072C337.685 49.3729 338.877 50.3485 339.146 51.7408C339.176 51.4358 339.234 51.0804 339.319 50.4377C339.607 48.6428 338.71 47.4228 336.95 47.1399C335.937 46.9771 334.639 47.1147 333.445 47.8525L333.126 46.9991C334.46 46.3019 335.903 46.1694 337.36 46.4037C340.026 46.8323 340.987 48.2265 340.626 50.3563C340.383 51.8669 340.34 52.0239 340.118 53.5196C339.993 54.5206 339.937 55.095 339.831 56.0988L338.355 55.8616ZM335.498 55.0376C337.097 55.2947 338.647 54.5046 338.909 52.8696C339.172 51.2346 337.952 49.981 336.352 49.7238C334.735 49.4638 333.343 50.2974 333.08 51.9324C332.817 53.5674 333.881 54.7775 335.498 55.0376ZM341.292 56.3337C341.505 55.3471 341.632 54.7841 341.828 53.7946C342.085 52.3046 342.22 51.4693 342.442 49.9737C342.566 48.9727 342.614 48.4516 342.721 47.4478L344.196 47.685C343.982 48.6716 343.846 49.1785 343.668 50.1708C343.64 50.3485 343.614 50.5085 343.57 50.6656C344.472 48.9145 345.646 47.7359 347.21 47.9873C348.72 48.2302 349.157 49.5949 348.891 51.1381C348.862 51.3159 348.84 51.458 348.82 51.5824C349.709 49.7929 350.906 48.5816 352.488 48.836C353.981 49.076 354.436 50.4435 354.169 51.9868C353.909 53.4945 353.779 54.1848 353.575 55.6833C353.433 56.6814 353.394 57.2586 353.288 58.2624L351.813 58.0253C352.026 57.0386 352.153 56.4756 352.349 55.4861C352.606 53.9962 352.75 53.2171 352.954 51.7185C353.137 50.4716 352.602 49.6017 351.678 49.4532C350.558 49.2731 349.597 50.3765 348.719 52.2044C348.562 53.0724 348.456 53.73 348.297 54.8347C348.172 55.8356 348.116 56.41 348.01 57.4138L346.534 57.1766C346.748 56.19 346.893 55.6299 347.07 54.6375C347.346 53.1504 347.472 52.3684 347.694 50.8727C347.876 49.6259 347.324 48.7531 346.4 48.6045C345.298 48.4274 344.339 49.513 343.47 51.2876C343.31 52.1733 343.21 52.9048 343.054 53.9917C342.912 54.9898 342.874 55.5671 342.767 56.5709L341.292 56.3337ZM358.408 59.2681C356.045 58.888 354.58 56.8841 355.046 53.9873C355.512 51.0905 357.531 49.6467 359.93 50.0325C361.565 50.2953 363.427 51.5246 363.312 54.1678L356.259 53.9271C356.248 53.9982 356.233 54.0871 356.219 54.1759C355.845 56.504 356.911 58.1521 358.546 58.415C359.967 58.6436 361.25 57.8106 361.847 56.1382L362.965 56.555C362.178 58.6161 360.434 59.5938 358.408 59.2681ZM356.322 53.6456L362.135 53.778C362.026 51.7368 360.912 51.0655 359.899 50.9026C358.282 50.6426 356.844 51.6511 356.322 53.6456Z" fill="#647D7E"/>
<path d="M374.864 61.7314C374.418 57.3572 373.787 53.0078 373.079 48.6825L374.749 48.9511C375.039 52.0241 375.382 55.1057 375.82 58.166C375.971 59.2659 376.1 60.0523 376.292 61.013C378.162 57.4305 379.884 53.7512 381.502 50.0369L383.173 50.3055C381.721 53.0985 380.284 55.9121 378.948 58.7783C378.317 60.0988 377.983 60.811 377.405 62.14L374.864 61.7314ZM384.202 53.1874C383.686 53.1045 383.374 52.7808 383.448 52.3187C383.52 51.8745 383.918 51.665 384.433 51.7479C384.949 51.8308 385.243 52.1516 385.172 52.5959C385.098 53.058 384.717 53.2703 384.202 53.1874ZM381.863 62.8568C382.076 61.8701 382.203 61.3071 382.399 60.3176C382.657 58.8277 382.791 57.9924 383.013 56.4967C383.138 55.4958 383.185 54.9747 383.292 53.9709L384.767 54.2081C384.554 55.1947 384.417 55.7015 384.24 56.6939C383.964 58.181 383.83 59.0163 383.625 60.5148C383.483 61.5129 383.445 62.0901 383.338 63.0939L381.863 62.8568ZM385.002 63.3614C385.215 62.3748 385.342 61.8118 385.538 60.8223C385.796 59.3323 385.93 58.4971 386.152 57.0014C386.277 56.0004 386.324 55.4793 386.431 54.4756L387.906 54.7127C387.692 55.6994 387.556 56.2062 387.378 57.1985C387.344 57.4118 387.31 57.6251 387.261 57.8177C388.28 56.0126 389.534 54.7922 391.169 55.055C392.235 55.2265 393.062 55.9793 392.831 57.4188C392.705 58.2008 392.309 58.8482 391.708 59.2984L390.573 58.9883C391.235 58.3838 391.566 57.7989 391.643 57.2096C391.797 56.2499 391.176 55.8037 390.518 55.698C389.274 55.4979 388.192 56.5636 387.178 58.3331C387.017 59.2188 386.918 59.9503 386.764 61.0195C386.622 62.0175 386.584 62.5948 386.477 63.5986L385.002 63.3614ZM393.414 64.7139C393.673 63.4429 393.84 62.7406 394.058 61.4994C394.399 59.6035 394.571 58.5372 394.841 56.6299C394.87 56.4522 394.895 56.2923 394.921 56.1323C394.477 56.0609 394.225 56.0387 393.778 55.985L393.841 55.594C394.264 55.6804 394.528 55.741 394.955 55.8096C395.065 55.007 395.136 54.3437 395.237 53.3755L396.729 53.6155C396.54 54.5695 396.381 55.2184 396.216 56.0125C396.803 56.1067 397.392 56.1833 397.982 56.2598L397.919 56.6508C397.335 56.5387 396.751 56.4266 396.165 56.3323C396.139 56.4923 396.114 56.6522 396.085 56.83C395.744 58.7258 395.572 59.7921 395.302 61.6994C395.12 62.9463 395.059 63.6657 394.906 64.9539L393.414 64.7139ZM404.585 66.5099C404.798 65.5233 404.925 64.9603 405.12 63.9708C405.16 63.722 405.198 63.491 405.232 63.2777C403.973 65.0989 402.281 66.3219 400.273 65.999C398.389 65.6962 397.955 64.3137 398.221 62.7704C398.479 61.2805 398.591 60.5874 398.813 59.0917C398.94 58.073 398.993 57.5163 399.1 56.5125L400.575 56.7497C400.362 57.7364 400.22 58.2787 400.039 59.2888C399.764 60.776 399.656 61.5608 399.433 63.0565C399.251 64.3033 399.892 65.1904 401.048 65.3761C402.576 65.6218 404.073 64.5864 405.324 62.8185C405.464 61.9477 405.581 61.219 405.735 60.1499C405.859 59.1489 405.906 58.6279 406.013 57.6241L407.488 57.8612C407.275 58.8479 407.139 59.3547 406.961 60.347C406.685 61.8342 406.551 62.6694 406.347 64.168C406.204 65.166 406.166 65.7433 406.06 66.7471L404.585 66.5099ZM414.103 68.0404C414.253 67.3352 414.369 66.8433 414.481 66.2597C413.78 67.4415 412.366 67.9616 410.749 67.7016C408.634 67.3615 407.264 65.9016 407.584 63.9112C407.907 61.903 409.665 60.9459 411.78 61.286C413.433 61.5517 414.625 62.5273 414.894 63.9196C414.924 63.6146 414.981 63.2592 415.067 62.6165C415.355 60.8216 414.457 59.6016 412.698 59.3187C411.685 59.1559 410.387 59.2935 409.192 60.0313L408.874 59.1779C410.207 58.4807 411.651 58.3482 413.108 58.5825C415.774 59.0111 416.735 60.4053 416.374 62.535C416.131 64.0456 416.088 64.2027 415.865 65.6984C415.741 66.6994 415.685 67.2738 415.578 68.2776L414.103 68.0404ZM411.246 67.2164C412.845 67.4735 414.394 66.6834 414.657 65.0484C414.92 63.4134 413.7 62.1598 412.1 61.9026C410.483 61.6426 409.091 62.4762 408.828 64.1112C408.565 65.7462 409.629 66.9563 411.246 67.2164ZM417.04 68.5125C417.333 67.0283 417.503 66.1987 417.776 64.7294C418.153 62.493 418.353 61.2489 418.696 59.0068C418.897 57.5261 418.996 56.6851 419.183 55.1837L420.658 55.4208C420.364 56.9051 420.177 57.7318 419.922 59.204C419.526 61.4375 419.326 62.6816 419.002 64.9265C418.782 66.4044 418.701 67.2483 418.515 68.7497L417.04 68.5125ZM423.456 69.5442C425.488 65.6412 427.448 61.7267 429.242 57.7126L431.783 58.1212C431.916 59.5645 432.009 60.3452 432.198 61.7794C432.568 64.92 433.033 68.0393 433.551 71.1672L431.88 70.8986C431.766 69.5676 431.703 68.8281 431.556 67.5831L426.471 66.7837C425.962 67.9052 425.653 68.5847 425.127 69.8128L423.456 69.5442ZM426.828 66.0389L431.454 66.7463C431.242 64.8891 431.087 63.6974 430.809 61.6838C430.658 60.5838 430.529 59.7974 430.337 58.8367C429.117 61.2111 427.947 63.6118 426.828 66.0389ZM437.679 72.0133C435.316 71.6333 433.851 69.6294 434.317 66.7326C434.783 63.8358 436.802 62.392 439.165 62.772C440.907 63.052 442.15 64.1635 442.518 65.8452L441.368 66.0796C441.094 64.7229 440.237 63.8193 439.028 63.625C437.393 63.3621 435.867 64.5753 435.49 66.9212C435.116 69.2493 436.182 70.8974 437.817 71.1603C439.238 71.3888 440.521 70.5559 441.118 68.8834L442.236 69.3002C441.449 71.3614 439.705 72.339 437.679 72.0133ZM446.426 73.4197C444.063 73.0396 442.598 71.0357 443.064 68.1389C443.53 65.2422 445.549 63.7983 447.912 64.1783C449.654 64.4584 450.897 65.5698 451.265 67.2515L450.115 67.486C449.841 66.1293 448.984 65.2257 447.775 65.0314C446.14 64.7685 444.614 65.9817 444.237 68.3275C443.863 70.6556 444.929 72.3037 446.564 72.5666C447.985 72.7952 449.268 71.9622 449.865 70.2898L450.983 70.7066C450.196 72.7677 448.452 73.7454 446.426 73.4197ZM455.245 74.8374C452.828 74.4488 451.345 72.4421 451.811 69.5453C452.277 66.6485 454.313 65.2075 456.73 65.5961C459.165 65.9876 460.665 67.9972 460.199 70.894C459.734 73.7908 457.679 75.2289 455.245 74.8374ZM455.382 73.9844C457.07 74.2559 458.581 73.0221 458.955 70.694C459.333 68.3481 458.282 66.7206 456.593 66.4492C454.941 66.1834 453.415 67.3966 453.037 69.7425C452.663 72.0706 453.729 73.7187 455.382 73.9844ZM467.445 76.6168C467.658 75.6301 467.785 75.0671 467.981 74.0776C468.021 73.8288 468.058 73.5978 468.092 73.3845C466.833 75.2058 465.142 76.4287 463.134 76.1058C461.25 75.803 460.816 74.4205 461.082 72.8773C461.34 71.3873 461.451 70.6942 461.674 69.1985C461.801 68.1798 461.854 67.6232 461.961 66.6194L463.436 66.8565C463.222 67.8432 463.08 68.3855 462.9 69.3957C462.624 70.8828 462.516 71.6676 462.294 73.1633C462.112 74.4101 462.753 75.2972 463.908 75.4829C465.437 75.7287 466.934 74.6932 468.185 72.9253C468.325 72.0545 468.442 71.3259 468.595 70.2567C468.72 69.2558 468.767 68.7347 468.874 67.7309L470.349 67.968C470.136 68.9547 469.999 69.4615 469.822 70.4539C469.546 71.941 469.412 72.7762 469.207 74.2748C469.065 75.2729 469.027 75.8501 468.92 76.8539L467.445 76.6168ZM470.442 77.0986C470.655 76.1119 470.782 75.5489 470.978 74.5594C471.235 73.0695 471.37 72.2342 471.592 70.7385C471.716 69.7376 471.764 69.2165 471.87 68.2127L473.346 68.4498C473.132 69.4365 472.996 69.9433 472.818 70.9357C472.77 71.2378 472.709 71.5015 472.669 71.7503C473.934 69.8935 475.649 68.6379 477.693 68.9665C479.559 69.2665 480.013 70.634 479.747 72.1773C479.486 73.685 479.357 74.3753 479.153 75.8738C479.01 76.8719 478.972 77.4492 478.866 78.4529L477.391 78.2158C477.604 77.2291 477.731 76.6662 477.926 75.6767C478.184 74.1867 478.31 73.4047 478.532 71.909C478.714 70.6622 478.073 69.7751 476.918 69.5894C475.354 69.3379 473.851 70.4089 472.595 72.2124C472.446 73.027 472.349 73.7407 472.204 74.7566C472.062 75.7547 472.024 76.3319 471.917 77.3357L470.442 77.0986ZM480.884 78.7775C481.143 77.5065 481.311 76.8042 481.528 75.563C481.87 73.6671 482.041 72.6008 482.311 70.6935C482.34 70.5158 482.366 70.3559 482.391 70.1959C481.947 70.1245 481.695 70.1023 481.248 70.0486L481.311 69.6576C481.735 69.744 481.998 69.8046 482.425 69.8732C482.536 69.0706 482.606 68.4073 482.707 67.4391L484.2 67.6791C484.01 68.6331 483.851 69.282 483.687 70.0761C484.273 70.1703 484.863 70.2469 485.452 70.3234L485.389 70.7144C484.805 70.6023 484.222 70.4902 483.635 70.3959C483.61 70.5559 483.584 70.7158 483.555 70.8936C483.214 72.7894 483.043 73.8557 482.772 75.763C482.59 77.0099 482.529 77.7293 482.377 79.0175L480.884 78.7775Z" fill="#647D7E"/>
<path d="M278.434 100.921L274.307 100.257C276.489 89.7343 277.62 83.8107 278.839 73.1775L276.917 74.8739L274.745 74.5247L280.856 69.2235L283.463 69.6426C281.109 81.787 280.006 88.6508 278.434 100.921ZM299.821 104.493C292.914 103.383 288.632 95.9204 290.092 86.841C291.545 77.805 297.95 72.061 304.857 73.1715C311.808 74.2891 316.046 81.7444 314.593 90.7804C313.133 99.8598 306.772 105.611 299.821 104.493ZM300.254 101.8C305.076 102.575 309.922 97.3825 311.074 90.2146C312.227 83.0467 309.246 76.6402 304.424 75.8649C299.645 75.0966 294.807 80.2458 293.654 87.4137C292.502 94.5817 295.475 101.032 300.254 101.8ZM329.969 79.5265C330.193 78.1363 331.128 77.3063 332.301 77.4949C333.474 77.6835 334.102 78.765 333.879 80.1551C333.239 80.8098 332.358 81.0246 331.758 83.6467C334.298 82.5398 334.307 81.65 334.831 80.8875C335.351 80.7037 335.849 80.6502 336.284 80.72C336.979 80.8318 337.495 81.2267 337.788 81.8977C338.192 82.9877 337.626 84.0109 336.248 84.5468C335.813 84.477 335.45 84.2404 334.886 84.1496C334.321 84.0588 333.468 84.0998 332.153 84.5124C333.272 85.3162 334.069 85.6227 334.634 85.7135C335.199 85.8043 335.618 85.6934 336.052 85.7632C337.193 86.7043 337.41 87.8532 336.684 88.7616C336.239 89.3139 335.582 89.5202 334.887 89.4084C334.452 89.3386 333.995 89.1314 333.56 88.7939C333.301 87.9057 333.571 87.0578 331.55 85.2176C331.254 87.8885 332.024 88.3687 332.426 89.1911C332.203 90.5812 331.267 91.4112 330.094 91.2226C328.921 91.034 328.293 89.9526 328.516 88.5624C329.156 87.9077 330.038 87.6929 330.637 85.0709C328.098 86.1777 328.088 87.0675 327.565 87.8301C327.045 88.0139 326.546 88.0674 326.112 87.9975C325.416 87.8858 324.901 87.4909 324.651 86.8268C324.203 85.7299 324.769 84.7067 326.147 84.1707C326.582 84.2406 326.945 84.4772 327.51 84.568C328.074 84.6588 328.928 84.6177 330.242 84.2051C329.123 83.4013 328.326 83.0949 327.761 83.0041C327.196 82.9133 326.777 83.0242 326.343 82.9543C325.202 82.0133 324.986 80.8643 325.754 79.963C326.2 79.4106 326.813 79.1974 327.508 79.3091C327.943 79.379 328.4 79.5861 328.836 79.9236C329.094 80.8119 328.824 81.6597 330.845 83.5C331.141 80.8291 330.372 80.3488 329.969 79.5265ZM351.015 82.9102C351.238 81.5201 352.174 80.6901 353.347 80.8787C354.52 81.0673 355.148 82.1487 354.925 83.5388C354.285 84.1935 353.403 84.4084 352.803 87.0304C355.343 85.9236 355.353 85.0338 355.876 84.2712C356.396 84.0874 356.895 84.0339 357.329 84.1038C358.024 84.2155 358.54 84.6104 358.834 85.2815C359.238 86.3714 358.672 87.3946 357.293 87.9306C356.859 87.8607 356.496 87.6241 355.931 87.5333C355.367 87.4425 354.513 87.4836 353.199 87.8962C354.318 88.6999 355.115 89.0064 355.68 89.0972C356.245 89.188 356.663 89.0771 357.098 89.147C358.239 90.088 358.455 91.2369 357.73 92.1453C357.285 92.6976 356.628 92.9039 355.932 92.7922C355.498 92.7223 355.041 92.5152 354.605 92.1777C354.347 91.2894 354.617 90.4415 352.595 88.6013C352.3 91.2722 353.069 91.7525 353.472 92.5748C353.248 93.9649 352.313 94.795 351.14 94.6064C349.967 94.4178 349.338 93.3363 349.562 91.9462C350.202 91.2915 351.083 91.0767 351.683 88.4546C349.143 89.5615 349.134 90.4513 348.61 91.2138C348.09 91.3976 347.592 91.4511 347.157 91.3813C346.462 91.2695 345.946 90.8746 345.696 90.2106C345.249 89.1136 345.815 88.0904 347.193 87.5545C347.628 87.6243 347.991 87.8609 348.555 87.9517C349.12 88.0425 349.973 88.0015 351.288 87.5889C350.169 86.7851 349.372 86.4786 348.807 86.3878C348.242 86.297 347.823 86.4079 347.389 86.3381C346.248 85.397 346.031 84.2481 346.8 83.3467C347.245 82.7944 347.859 82.5811 348.554 82.6929C348.989 82.7627 349.445 82.9699 349.881 83.3073C350.14 84.1956 349.87 85.0435 351.891 86.8837C352.187 84.2128 351.417 83.7326 351.015 82.9102ZM372.06 86.294C372.284 84.9038 373.22 84.0738 374.393 84.2624C375.565 84.451 376.194 85.5324 375.97 86.9226C375.33 87.5773 374.449 87.7921 373.849 90.4141C376.389 89.3073 376.398 88.4175 376.922 87.655C377.442 87.4712 377.941 87.4177 378.375 87.4875C379.07 87.5993 379.586 87.9942 379.879 88.6652C380.283 89.7552 379.718 90.7784 378.339 91.3143C377.905 91.2445 377.542 91.0078 376.977 90.917C376.412 90.8262 375.559 90.8673 374.245 91.2799C375.363 92.0837 376.161 92.3902 376.725 92.481C377.29 92.5718 377.709 92.4609 378.144 92.5307C379.285 93.4718 379.501 94.6207 378.776 95.5291C378.33 96.0814 377.673 96.2877 376.978 96.1759C376.544 96.1061 376.087 95.8989 375.651 95.5614C375.393 94.6732 375.663 93.8253 373.641 91.985C373.345 94.656 374.115 95.1362 374.517 95.9585C374.294 97.3487 373.358 98.1787 372.185 97.9901C371.012 97.8015 370.384 96.7201 370.608 95.3299C371.248 94.6752 372.129 94.4604 372.729 91.8384C370.189 92.9452 370.18 93.835 369.656 94.5975C369.136 94.7814 368.637 94.8349 368.203 94.765C367.508 94.6533 366.992 94.2584 366.742 93.5943C366.295 92.4973 366.86 91.4742 368.239 90.9382C368.673 91.008 369.036 91.2447 369.601 91.3355C370.166 91.4263 371.019 91.3852 372.333 90.9726C371.215 90.1688 370.417 89.8624 369.852 89.7716C369.288 89.6808 368.869 89.7917 368.434 89.7218C367.293 88.7807 367.077 87.6318 367.846 86.7305C368.291 86.1781 368.905 85.9648 369.6 86.0766C370.034 86.1464 370.491 86.3536 370.927 86.6911C371.185 87.5794 370.915 88.4272 372.937 90.2675C373.233 87.5966 372.463 87.1163 372.06 86.294ZM393.106 89.6777C393.33 88.2876 394.265 87.4576 395.438 87.6462C396.611 87.8347 397.239 88.9162 397.016 90.3063C396.376 90.961 395.495 91.1759 394.895 93.7979C397.435 92.6911 397.444 91.8013 397.968 91.0387C398.487 90.8549 398.986 90.8014 399.421 90.8712C400.116 90.983 400.632 91.3779 400.925 92.049C401.329 93.1389 400.763 94.1621 399.385 94.6981C398.95 94.6282 398.587 94.3916 398.023 94.3008C397.458 94.21 396.604 94.2511 395.29 94.6637C396.409 95.4674 397.206 95.7739 397.771 95.8647C398.336 95.9555 398.755 95.8446 399.189 95.9144C400.33 96.8555 400.547 98.0044 399.821 98.9128C399.376 99.4651 398.719 99.6714 398.024 99.5597C397.589 99.4898 397.132 99.2827 396.696 98.9452C396.438 98.0569 396.708 97.209 394.687 95.3688C394.391 98.0397 395.161 98.52 395.563 99.3423C395.34 100.732 394.404 101.562 393.231 101.374C392.058 101.185 391.43 100.104 391.653 98.7137C392.293 98.059 393.175 97.8441 393.774 95.2221C391.235 96.329 391.225 97.2188 390.701 97.9813C390.182 98.1651 389.683 98.2186 389.248 98.1488C388.553 98.037 388.038 97.6421 387.788 96.978C387.34 95.8811 387.906 94.8579 389.284 94.3219C389.719 94.3918 390.082 94.6284 390.647 94.7192C391.211 94.81 392.065 94.769 393.379 94.3563C392.26 93.5526 391.463 93.2461 390.898 93.1553C390.333 93.0645 389.914 93.1754 389.48 93.1056C388.339 92.1645 388.123 91.0156 388.891 90.1142C389.337 89.5619 389.95 89.3486 390.645 89.4603C391.08 89.5302 391.537 89.7374 391.973 90.0748C392.231 90.9631 391.961 91.811 393.982 93.6512C394.278 90.9803 393.509 90.5001 393.106 89.6777ZM414.152 93.0615C414.375 91.6713 415.311 90.8413 416.484 91.0299C417.657 91.2185 418.285 92.2999 418.062 93.6901C417.421 94.3448 416.54 94.5596 415.94 97.1816C418.48 96.0748 418.49 95.185 419.013 94.4225C419.533 94.2386 420.032 94.1851 420.466 94.255C421.161 94.3668 421.677 94.7616 421.97 95.4327C422.375 96.5227 421.809 97.5459 420.43 98.0818C419.996 98.012 419.633 97.7753 419.068 97.6845C418.503 97.5937 417.65 97.6348 416.336 98.0474C417.455 98.8512 418.252 99.1577 418.817 99.2485C419.382 99.3393 419.8 99.2283 420.235 99.2982C421.376 100.239 421.592 101.388 420.867 102.297C420.422 102.849 419.764 103.055 419.069 102.943C418.635 102.874 418.178 102.666 417.742 102.329C417.484 101.441 417.754 100.593 415.732 98.7525C415.437 101.423 416.206 101.904 416.609 102.726C416.385 104.116 415.45 104.946 414.277 104.758C413.104 104.569 412.475 103.488 412.699 102.097C413.339 101.443 414.22 101.228 414.82 98.6059C412.28 99.7127 412.271 100.603 411.747 101.365C411.227 101.549 410.729 101.602 410.294 101.533C409.599 101.421 409.083 101.026 408.833 100.362C408.386 99.2648 408.951 98.2417 410.33 97.7057C410.764 97.7755 411.128 98.0122 411.692 98.103C412.257 98.1938 413.11 98.1527 414.425 97.7401C413.306 96.9363 412.508 96.6299 411.944 96.5391C411.379 96.4483 410.96 96.5592 410.526 96.4893C409.385 95.5482 409.168 94.3993 409.937 93.4979C410.382 92.9456 410.996 92.7323 411.691 92.8441C412.125 92.9139 412.582 93.1211 413.018 93.4586C413.277 94.3468 413.007 95.1947 415.028 97.035C415.324 94.364 414.554 93.8838 414.152 93.0615ZM435.197 96.4452C435.421 95.0551 436.357 94.2251 437.529 94.4137C438.702 94.6022 439.331 95.6837 439.107 97.0738C438.467 97.7285 437.586 97.9434 436.986 100.565C439.526 99.4585 439.535 98.5688 440.059 97.8062C440.579 97.6224 441.078 97.5689 441.512 97.6387C442.207 97.7505 442.723 98.1454 443.016 98.8164C443.42 99.9064 442.855 100.93 441.476 101.466C441.042 101.396 440.679 101.159 440.114 101.068C439.549 100.977 438.696 101.019 437.382 101.431C438.5 102.235 439.298 102.541 439.862 102.632C440.427 102.723 440.846 102.612 441.281 102.682C442.422 103.623 442.638 104.772 441.913 105.68C441.467 106.233 440.81 106.439 440.115 106.327C439.681 106.257 439.224 106.05 438.788 105.713C438.53 104.824 438.8 103.977 436.778 102.136C436.482 104.807 437.252 105.287 437.654 106.11C437.431 107.5 436.495 108.33 435.322 108.141C434.149 107.953 433.521 106.871 433.745 105.481C434.385 104.826 435.266 104.612 435.866 101.99C433.326 103.096 433.316 103.986 432.793 104.749C432.273 104.933 431.774 104.986 431.34 104.916C430.645 104.805 430.129 104.41 429.879 103.746C429.432 102.649 429.997 101.625 431.376 101.089C431.81 101.159 432.173 101.396 432.738 101.487C433.303 101.578 434.156 101.536 435.47 101.124C434.352 100.32 433.554 100.014 432.989 99.9228C432.425 99.832 432.006 99.9429 431.571 99.8731C430.43 98.932 430.214 97.7831 430.983 96.8817C431.428 96.3294 432.042 96.1161 432.737 96.2278C433.171 96.2977 433.628 96.5048 434.064 96.8423C434.322 97.7306 434.052 98.5785 436.074 100.419C436.369 97.7478 435.6 97.2675 435.197 96.4452ZM456.771 130.084C450.819 129.127 447.984 125.418 448.732 120.77C449.332 117.034 452.107 113.915 456.433 112.783C453.412 110.782 451.906 107.956 452.458 104.524C453.156 100.179 456.658 97.8011 461.784 98.6253C466.954 99.4565 469.404 102.792 468.705 107.136C468.153 110.568 465.967 112.801 462.471 113.754C466.138 116.171 467.665 119.982 467.064 123.718C466.317 128.366 462.679 131.034 456.771 130.084ZM459.619 112.092C462.597 111.591 464.857 109.726 465.325 106.815C465.793 103.905 464.294 101.034 461.47 100.58C458.69 100.133 456.279 102.375 455.811 105.286C455.343 108.196 456.992 110.69 459.619 112.092ZM457.043 128.39C460.258 128.907 462.834 126.469 463.413 122.863C463.972 119.388 462.599 115.736 459.285 114.445C455.778 114.639 453.068 117.635 452.502 121.154C451.93 124.716 453.785 127.866 457.043 128.39ZM484.18 134.491C478.229 133.534 475.393 129.825 476.141 125.177C476.741 121.441 479.516 118.322 483.842 117.19C480.822 115.189 479.315 112.362 479.867 108.931C480.566 104.586 484.067 102.208 489.194 103.032C494.363 103.863 496.813 107.199 496.114 111.543C495.563 114.975 493.376 117.208 489.881 118.161C493.548 120.578 495.074 124.389 494.473 128.125C493.726 132.773 490.088 135.441 484.18 134.491ZM487.028 116.499C490.006 115.998 492.266 114.133 492.734 111.222C493.202 108.312 491.703 105.441 488.879 104.987C486.099 104.54 483.689 106.782 483.221 109.693C482.753 112.603 484.402 115.097 487.028 116.499ZM484.453 132.797C487.667 133.314 490.243 130.876 490.823 127.27C491.381 123.795 490.008 120.142 486.695 118.852C483.187 119.046 480.478 122.042 479.912 125.56C479.339 129.123 481.194 132.273 484.453 132.797ZM510.797 123.039L511.027 121.606C515.936 122.395 519.047 122.449 519.863 117.099C520.497 112.878 518.24 110.287 515.59 109.861C512.94 109.435 509.947 111.138 509.068 115.497L505.897 114.987C506.889 108.819 511.795 106.577 516.269 107.296C520.657 108.002 524.613 111.668 523.712 117.272C523.035 121.486 520.381 123.021 517.295 123.371C520.102 124.758 522.134 127.09 521.456 131.304C520.548 136.952 515.678 139.244 511.291 138.538C506.816 137.819 502.831 134.058 503.85 127.716L507.022 128.226C506.419 132.808 508.763 135.413 511.413 135.839C514.106 136.272 517.112 134.483 517.797 130.226C518.656 124.882 515.706 123.829 510.797 123.039ZM538.939 142.939C533.596 142.08 529.943 137.081 531.491 126.901C533.184 115.542 539.357 110.964 544.657 111.816C547.437 112.263 550.016 114.237 551.539 117.513L549.632 119.122C548.641 116.69 546.845 115.109 544.847 114.788C541.546 114.257 537.67 117.021 535.768 124.692C537.658 123.748 539.754 123.461 541.752 123.783C546.574 124.558 550.657 128.824 549.607 135.073C548.557 141.054 543.675 143.7 538.939 142.939ZM535.379 126.279C535.337 126.539 535.295 126.8 535.246 127.104C533.993 134.345 535.156 140.414 539.109 141.05C542.194 141.546 545.389 138.584 546.072 134.059C546.762 129.49 544.448 125.865 540.755 125.271C539.148 125.013 537.319 125.298 535.379 126.279Z" fill="#1F1F1F"/>
</g>
<rect x="255.91" y="0.573031" width="478" height="132" rx="7.5" transform="rotate(9.13392 255.91 0.573031)" stroke="#FFC2CD"/>
</g>
<defs>
<filter id="filter0_dddddd_404_71" x="-74.176" y="85.948" width="655.157" height="397.455" filterUnits="userSpaceOnUse" color-interpolation-filters="sRGB">
<feFlood flood-opacity="0" result="BackgroundImageFix"/>
<feColorMatrix in="SourceAlpha" type="matrix" values="0 0 0 0 0 0 0 0 0 0 0 0 0 0 0 0 0 0 127 0" result="hardAlpha"/>
<feOffset dy="2.76726"/>
<feGaussianBlur stdDeviation="1.1069"/>
<feColorMatrix type="matrix" values="0 0 0 0 0 0 0 0 0 0 0 0 0 0 0 0 0 0 0.0196802 0"/>
<feBlend mode="normal" in2="BackgroundImageFix" result="effect1_dropShadow_404_71"/>
<feColorMatrix in="SourceAlpha" type="matrix" values="0 0 0 0 0 0 0 0 0 0 0 0 0 0 0 0 0 0 127 0" result="hardAlpha"/>
<feOffset dy="6.6501"/>
<feGaussianBlur stdDeviation="2.66004"/>
<feColorMatrix type="matrix" values="0 0 0 0 0 0 0 0 0 0 0 0 0 0 0 0 0 0 0.0282725 0"/>
<feBlend mode="normal" in2="effect1_dropShadow_404_71" result="effect2_dropShadow_404_71"/>
<feColorMatrix in="SourceAlpha" type="matrix" values="0 0 0 0 0 0 0 0 0 0 0 0 0 0 0 0 0 0 127 0" result="hardAlpha"/>
<feOffset dy="12.5216"/>
<feGaussianBlur stdDeviation="5.00862"/>
<feColorMatrix type="matrix" values="0 0 0 0 0 0 0 0 0 0 0 0 0 0 0 0 0 0 0.035 0"/>
<feBlend mode="normal" in2="effect2_dropShadow_404_71" result="effect3_dropShadow_404_71"/>
<feColorMatrix in="SourceAlpha" type="matrix" values="0 0 0 0 0 0 0 0 0 0 0 0 0 0 0 0 0 0 127 0" result="hardAlpha"/>
<feOffset dy="22.3363"/>
<feGaussianBlur stdDeviation="8.93452"/>
<feColorMatrix type="matrix" values="0 0 0 0 0 0 0 0 0 0 0 0 0 0 0 0 0 0 0.0417275 0"/>
<feBlend mode="normal" in2="effect3_dropShadow_404_71" result="effect4_dropShadow_404_71"/>
<feColorMatrix in="SourceAlpha" type="matrix" values="0 0 0 0 0 0 0 0 0 0 0 0 0 0 0 0 0 0 127 0" result="hardAlpha"/>
<feOffset dy="41.7776"/>
<feGaussianBlur stdDeviation="16.711"/>
<feColorMatrix type="matrix" values="0 0 0 0 0 0 0 0 0 0 0 0 0 0 0 0 0 0 0.0503198 0"/>
<feBlend mode="normal" in2="effect4_dropShadow_404_71" result="effect5_dropShadow_404_71"/>
<feColorMatrix in="SourceAlpha" type="matrix" values="0 0 0 0 0 0 0 0 0 0 0 0 0 0 0 0 0 0 127 0" result="hardAlpha"/>
<feOffset dy="100"/>
<feGaussianBlur stdDeviation="40"/>
<feColorMatrix type="matrix" values="0 0 0 0 0 0 0 0 0 0 0 0 0 0 0 0 0 0 0.07 0"/>
<feBlend mode="normal" in2="effect5_dropShadow_404_71" result="effect6_dropShadow_404_71"/>
<feBlend mode="normal" in="SourceGraphic" in2="effect6_dropShadow_404_71" result="shape"/>
</filter>
<filter id="filter1_dddddd_404_71" x="154.383" y="0" width="654.039" height="387.351" filterUnits="userSpaceOnUse" color-interpolation-filters="sRGB">
<feFlood flood-opacity="0" result="BackgroundImageFix"/>
<feColorMatrix in="SourceAlpha" type="matrix" values="0 0 0 0 0 0 0 0 0 0 0 0 0 0 0 0 0 0 127 0" result="hardAlpha"/>
<feOffset dy="2.76726"/>
<feGaussianBlur stdDeviation="1.1069"/>
<feColorMatrix type="matrix" values="0 0 0 0 0 0 0 0 0 0 0 0 0 0 0 0 0 0 0.0196802 0"/>
<feBlend mode="normal" in2="BackgroundImageFix" result="effect1_dropShadow_404_71"/>
<feColorMatrix in="SourceAlpha" type="matrix" values="0 0 0 0 0 0 0 0 0 0 0 0 0 0 0 0 0 0 127 0" result="hardAlpha"/>
<feOffset dy="6.6501"/>
<feGaussianBlur stdDeviation="2.66004"/>
<feColorMatrix type="matrix" values="0 0 0 0 0 0 0 0 0 0 0 0 0 0 0 0 0 0 0.0282725 0"/>
<feBlend mode="normal" in2="effect1_dropShadow_404_71" result="effect2_dropShadow_404_71"/>
<feColorMatrix in="SourceAlpha" type="matrix" values="0 0 0 0 0 0 0 0 0 0 0 0 0 0 0 0 0 0 127 0" result="hardAlpha"/>
<feOffset dy="12.5216"/>
<feGaussianBlur stdDeviation="5.00862"/>
<feColorMatrix type="matrix" values="0 0 0 0 0 0 0 0 0 0 0 0 0 0 0 0 0 0 0.035 0"/>
<feBlend mode="normal" in2="effect2_dropShadow_404_71" result="effect3_dropShadow_404_71"/>
<feColorMatrix in="SourceAlpha" type="matrix" values="0 0 0 0 0 0 0 0 0 0 0 0 0 0 0 0 0 0 127 0" result="hardAlpha"/>
<feOffset dy="22.3363"/>
<feGaussianBlur stdDeviation="8.93452"/>
<feColorMatrix type="matrix" values="0 0 0 0 0 0 0 0 0 0 0 0 0 0 0 0 0 0 0.0417275 0"/>
<feBlend mode="normal" in2="effect3_dropShadow_404_71" result="effect4_dropShadow_404_71"/>
<feColorMatrix in="SourceAlpha" type="matrix" values="0 0 0 0 0 0 0 0 0 0 0 0 0 0 0 0 0 0 127 0" result="hardAlpha"/>
<feOffset dy="41.7776"/>
<feGaussianBlur stdDeviation="16.711"/>
<feColorMatrix type="matrix" values="0 0 0 0 0 0 0 0 0 0 0 0 0 0 0 0 0 0 0.0503198 0"/>
<feBlend mode="normal" in2="effect4_dropShadow_404_71" result="effect5_dropShadow_404_71"/>
<feColorMatrix in="SourceAlpha" type="matrix" values="0 0 0 0 0 0 0 0 0 0 0 0 0 0 0 0 0 0 127 0" result="hardAlpha"/>
<feOffset dy="100"/>
<feGaussianBlur stdDeviation="40"/>
<feColorMatrix type="matrix" values="0 0 0 0 0 0 0 0 0 0 0 0 0 0 0 0 0 0 0.07 0"/>
<feBlend mode="normal" in2="effect5_dropShadow_404_71" result="effect6_dropShadow_404_71"/>
<feBlend mode="normal" in="SourceGraphic" in2="effect6_dropShadow_404_71" result="shape"/>
</filter>
<clipPath id="clip0_404_71">
<rect x="5.82397" y="172.597" width="479" height="133" rx="8" transform="rotate(-10.422 5.82397 172.597)" fill="white"/>
</clipPath>
<clipPath id="clip1_404_71">
<rect x="255.496" width="479" height="133" rx="8" transform="rotate(9.13392 255.496 0)" fill="white"/>
</clipPath>
</defs>
</svg>
