<svg width="inherit" height="inherit" viewBox="0 0 191 203" fill="none" xmlns="http://www.w3.org/2000/svg">
<path fill-rule="evenodd" clip-rule="evenodd" d="M133.179 193.93V40.2732C133.179 33.3894 133.16 28.9262 132.725 25.6545C132.309 22.5814 131.637 21.6169 131.098 21.0779C130.559 20.5389 129.595 19.8676 126.522 19.4515C123.241 19.0165 118.787 18.9976 111.903 18.9976C105.019 18.9976 100.556 19.0165 97.2843 19.4515C94.2112 19.8676 93.2467 20.5389 92.7077 21.0779C92.1687 21.6169 91.4974 22.5814 91.0813 25.6545C90.6464 28.9357 90.6274 33.3894 90.6274 40.2732V193.93H133.179Z" fill="#FF385C"/>
<path d="M76.4443 82.8245C76.4443 80.9436 75.6971 79.1398 74.3671 77.8098C73.0371 76.4798 71.2333 75.7326 69.3524 75.7326H40.9849C39.1041 75.7326 37.3002 76.4798 35.9702 77.8098C34.6402 79.1398 33.8931 80.9436 33.8931 82.8245V193.93H76.4443V82.8245ZM189.914 130.104C189.914 128.223 189.167 126.419 187.837 125.089C186.507 123.759 184.703 123.012 182.822 123.012H154.455C152.574 123.012 150.77 123.759 149.44 125.089C148.11 126.419 147.363 128.223 147.363 130.104V193.93H189.914V130.104Z" fill="#FFC124"/>
<path d="M17.3448 193.93C15.4639 193.93 13.6601 194.677 12.3301 196.007C11.0001 197.337 10.2529 199.141 10.2529 201.022C10.2529 202.903 11.0001 204.707 12.3301 206.037C13.6601 207.367 15.4639 208.114 17.3448 208.114H206.461C208.342 208.114 210.146 207.367 211.476 206.037C212.806 204.707 213.553 202.903 213.553 201.022C213.553 199.141 212.806 197.337 211.476 196.007C210.146 194.677 208.342 193.93 206.461 193.93H17.3448Z" fill="#3E4095"/>
</svg>
